<svg width="22" height="23" fill="none" xmlns="http://www.w3.org/2000/svg"><mask id="a" fill="#fff"><path d="M21.953 17.808c-.062-.188-.458-.464-1.187-.828-.198-.115-.48-.271-.844-.47a77.82 77.82 0 0 1-.992-.547 33.168 33.168 0 0 1-.836-.484 20.156 20.156 0 0 0-.39-.274 4.388 4.388 0 0 0-.556-.337c-.15-.072-.299-.109-.445-.109-.208 0-.468.149-.78.446-.313.297-.6.62-.86.97-.26.349-.537.672-.828.969-.292.297-.531.445-.719.445-.094 0-.211-.026-.351-.078a3.642 3.642 0 0 1-.321-.132 5.86 5.86 0 0 1-.375-.22 9.737 9.737 0 0 0-.297-.18c-1.427-.792-2.65-1.699-3.672-2.72-1.02-1.022-1.927-2.246-2.719-3.675-.01-.02-.07-.12-.18-.297a5.622 5.622 0 0 1-.218-.375 3.39 3.39 0 0 1-.133-.32 1.059 1.059 0 0 1-.078-.352c0-.188.149-.428.445-.72.297-.291.62-.568.97-.828.348-.26.671-.547.968-.86C7.852 6.52 8 6.26 8 6.05c0-.145-.036-.294-.11-.445a4.348 4.348 0 0 0-.335-.555c-.151-.22-.242-.35-.274-.391a34.35 34.35 0 0 1-.484-.837 79.095 79.095 0 0 1-.547-.993 37.166 37.166 0 0 0-.469-.844c-.364-.73-.64-1.126-.828-1.188A.875.875 0 0 0 4.625.75c-.281 0-.648.052-1.101.156-.454.105-.81.214-1.07.329-.522.219-1.074.854-1.657 1.907C.266 4.122 0 5.092 0 6.05c0 .281.018.555.055.821.036.266.101.566.195.9.094.333.17.58.227.742.057.161.164.45.32.868.156.417.25.672.281.766a14.167 14.167 0 0 0 1.297 2.736c.822 1.334 1.945 2.713 3.367 4.136s2.8 2.546 4.133 3.37c.802.5 1.714.932 2.735 1.297.093.031.348.125.765.282.417.156.706.263.867.32.161.058.41.133.742.227.334.094.633.16.899.196.266.036.54.055.82.055.958 0 1.927-.266 2.907-.798 1.052-.583 1.687-1.136 1.905-1.658.116-.26.224-.617.329-1.07.104-.454.156-.821.156-1.103a.873.873 0 0 0-.047-.329Z"/></mask><path d="M21.953 17.808c-.062-.188-.458-.464-1.187-.828-.198-.115-.48-.271-.844-.47a77.82 77.82 0 0 1-.992-.547 33.168 33.168 0 0 1-.836-.484 20.156 20.156 0 0 0-.39-.274 4.388 4.388 0 0 0-.556-.337c-.15-.072-.299-.109-.445-.109-.208 0-.468.149-.78.446-.313.297-.6.62-.86.97-.26.349-.537.672-.828.969-.292.297-.531.445-.719.445-.094 0-.211-.026-.351-.078a3.642 3.642 0 0 1-.321-.132 5.86 5.86 0 0 1-.375-.22 9.737 9.737 0 0 0-.297-.18c-1.427-.792-2.65-1.699-3.672-2.72-1.02-1.022-1.927-2.246-2.719-3.675-.01-.02-.07-.12-.18-.297a5.622 5.622 0 0 1-.218-.375 3.39 3.39 0 0 1-.133-.32 1.059 1.059 0 0 1-.078-.352c0-.188.149-.428.445-.72.297-.291.62-.568.97-.828.348-.26.671-.547.968-.86C7.852 6.52 8 6.26 8 6.05c0-.145-.036-.294-.11-.445a4.348 4.348 0 0 0-.335-.555c-.151-.22-.242-.35-.274-.391a34.35 34.35 0 0 1-.484-.837 79.095 79.095 0 0 1-.547-.993 37.166 37.166 0 0 0-.469-.844c-.364-.73-.64-1.126-.828-1.188A.875.875 0 0 0 4.625.75c-.281 0-.648.052-1.101.156-.454.105-.81.214-1.07.329-.522.219-1.074.854-1.657 1.907C.266 4.122 0 5.092 0 6.05c0 .281.018.555.055.821.036.266.101.566.195.9.094.333.17.58.227.742.057.161.164.45.32.868.156.417.25.672.281.766a14.167 14.167 0 0 0 1.297 2.736c.822 1.334 1.945 2.713 3.367 4.136s2.8 2.546 4.133 3.37c.802.5 1.714.932 2.735 1.297.093.031.348.125.765.282.417.156.706.263.867.32.161.058.41.133.742.227.334.094.633.16.899.196.266.036.54.055.82.055.958 0 1.927-.266 2.907-.798 1.052-.583 1.687-1.136 1.905-1.658.116-.26.224-.617.329-1.07.104-.454.156-.821.156-1.103a.873.873 0 0 0-.047-.329Z" fill="#78C081" stroke="#577A5B" style="fill:color(display-p3 .4706 .7529 .5059);fill-opacity:1;stroke:color(display-p3 .3412 .4784 .3569);stroke-opacity:1" stroke-width="2" mask="url(#a)"/></svg>