<svg width="288" height="488" viewBox="0 0 288 488" fill="none" xmlns="http://www.w3.org/2000/svg">
<g opacity="0.85" clip-path="url(#clip0_86_465)">
<path d="M-43.4366 262.38C-44.31 250.075 -44.9164 221.826 -45.6098 207.181C-53.1366 107.373 -129.18 86.131 -174.944 182.842C-208.695 253.114 -229.712 350.186 -219.338 419.617C-214.604 448.864 -210.004 487.057 -180.212 488.368C-158.538 488.072 -136.179 460.079 -113.663 454.747C-82.0616 444.876 -46.3623 433.752 -39.3404 391.265C-29.7679 348.108 -44.439 305.003 -43.4366 262.38ZM-166.083 434.171C-178.488 436.144 -176.514 417.509 -178.54 409.833C-180.558 391.16 -180.726 372.334 -179.041 353.628C-178.842 351.419 -177.776 349.378 -176.077 347.952C-174.378 346.527 -172.184 345.832 -169.974 346.02C-167.764 346.208 -165.719 347.263 -164.285 348.955C-162.851 350.647 -162.145 352.839 -162.321 355.05C-163.935 372.527 -163.822 390.12 -161.986 407.574C-161.535 416.723 -154.2 431.772 -166.083 434.171ZM210.048 208.434C158.386 73.8902 76.5756 107.83 69.5111 207.179C68.8553 217.83 69.1219 233.632 68.1725 244.649L67.3372 261.795C68.6181 305.983 52.6663 350.771 64.2439 395.447C73.058 434.857 107.785 445.451 138.316 454.913C163.594 460.865 187.249 496.118 213.642 486.529C234.461 478.247 239.393 445.629 243.323 419.451C251.956 356.915 239.085 281.405 210.048 208.434ZM185.218 295.584C183.069 296.115 180.797 295.781 178.89 294.655C176.984 293.53 175.594 291.701 175.019 289.562C168.05 261.672 158.449 234.507 146.343 208.434C145.413 206.425 145.312 204.13 146.064 202.047C146.815 199.965 148.357 198.263 150.356 197.311C151.348 196.837 152.425 196.565 153.523 196.511C154.621 196.456 155.719 196.621 156.754 196.994C157.788 197.367 158.738 197.943 159.548 198.686C160.359 199.43 161.014 200.327 161.475 201.325C174.017 228.345 183.982 256.488 191.238 285.381C191.788 287.532 191.463 289.814 190.335 291.726C189.207 293.639 187.367 295.026 185.218 295.584ZM37.0735 145.372C37.0965 162.769 43.1541 179.619 54.2122 193.045C53.5433 197.311 53.1253 201.743 52.7909 206.259C52.2759 216.138 52.3001 232.913 51.4532 243.813L50.9516 254.602C35.7078 246.135 22.4299 234.534 11.9924 220.562C1.53009 234.586 -11.7743 246.243 -27.0504 254.769C-27.3148 246.492 -28.0321 235.404 -28.388 226.751C-28.0904 215.534 -28.7618 204.313 -30.3945 193.212C-19.237 179.766 -13.1168 162.848 -13.0886 145.372V28.3637C-13.082 26.1476 -12.199 24.0241 -10.6326 22.457C-9.06616 20.8899 -6.94351 20.0066 -4.72824 20H28.7131C30.9284 20.0066 33.051 20.8899 34.6175 22.457C36.1839 24.0241 37.0668 26.1476 37.0735 28.3637V145.372Z" fill="url(#paint0_linear_86_465)"/>
</g>
<defs>
<linearGradient id="paint0_linear_86_465" x1="107.959" y1="448.402" x2="-63.7713" y2="-293.937" gradientUnits="userSpaceOnUse">
<stop stop-color="#C9EF9A"/>
<stop offset="0.169186" stop-color="#99DB82"/>
<stop offset="0.275096" stop-color="#67C66B"/>
<stop offset="0.48352" stop-color="#44AC5E"/>
<stop offset="0.670111" stop-color="#3C9F61"/>
<stop offset="0.773853" stop-color="#459C65"/>
<stop offset="0.914936" stop-color="#7AAB6F"/>
<stop offset="1" stop-color="#DCCB83"/>
</linearGradient>
<clipPath id="clip0_86_465">
<rect width="510" height="488" fill="white" transform="translate(-222)"/>
</clipPath>
</defs>
</svg>
