<svg width="34" height="34" fill="none" xmlns="http://www.w3.org/2000/svg"><path fill-rule="evenodd" clip-rule="evenodd" d="M17 0C7.611 0 0 7.611 0 17s7.611 17 17 17 17-7.611 17-17S26.389 0 17 0zm4.912 18.365a1.578 1.578 0 0 0 .73-1.363 1.58 1.58 0 0 0-.73-1.364L15.56 9.287a1.588 1.588 0 0 0-2.245 2.245l5.47 5.47-5.498 5.498a1.587 1.587 0 0 0 2.245 2.245l6.38-6.38z" fill="#5CCD6A"/><path d="M22.18 18.151a1.606 1.606 0 0 1-.268.214l-6.38 6.38c-.31.31-.716.465-1.123.465a1.587 1.587 0 0 1-1.122-2.71l5.498-5.498-5.47-5.47a1.587 1.587 0 1 1 2.245-2.245l6.352 6.351a1.58 1.58 0 0 1 .73 1.364c.008.415-.145.832-.462 1.15z" fill="#fff"/></svg>