<svg width="1431" height="236" fill="none" xmlns="http://www.w3.org/2000/svg"><path fill-rule="evenodd" clip-rule="evenodd" d="M470.899 223.042s-215.605-8.679-447.9-65.102l447.9 65.102zM1051.2 171.527s-220.741 27.575-365.043 17.042l365.043-17.042zM1241 111.692s-220.74 27.575-365.043 17.042L1241 111.692z" fill="#fff" style="mix-blend-mode:soft-light"/><path fill-rule="evenodd" clip-rule="evenodd" d="M1002.95 141.808s-181.752 26.974-366.43 14.583C451.841 144.001 116 37.761 116 37.761s287.447 93.362 521.85 110.956c234.403 17.593 365.1-6.909 365.1-6.909zM1194.77 180.164s-187.54 20.418-417.239 20.198l193.815-2.312S831.117 211.924 720 209.184c0 0 292.02-.382 468.31-12.718l6.46-16.302z" fill="#fff" style="mix-blend-mode:soft-light"/><path fill-rule="evenodd" clip-rule="evenodd" d="M486.979 95.845s301.457-11.167 421.619 8.965l-421.619-8.965zM-48 67.893s301.457-11.166 421.619 8.965l-421.62-8.965z" fill="#fff" style="mix-blend-mode:screen"/><path fill-rule="evenodd" clip-rule="evenodd" d="M354.797 34.883s291.539-20.574 480.163 7.924l-480.163-7.924zM635.455 76.586s240.888-36.124 482.185 4.854l-482.185-4.854z" fill="#fff" style="mix-blend-mode:soft-light"/><g clip-path="url(#a)" fill="#EDFFEF"><path d="M1304.41 198.255a2.65 2.65 0 0 1-.45-.211l-2.85-.188c-.21-.408-.38-.718-.48-.976-.39 11.309.67 37.328-16.94 36.444.16.831.33 1.662.46 2.493 17.87-2.402 21.43-23.077 21.33-37.676a1.093 1.093 0 0 1-1.07.114zM1281.41 38.831l.44.657c-.14-.212-.29-.431-.44-.657zM1239.5 213.782c-.3-.578-.57-1.171-.82-1.778-.92-1.798-1.94-3.857-2.83-6.095.8 3.324 2.12 6.438 4.17 8.923a6.88 6.88 0 0 1-.52-1.05zM1340.95 86.48l-.07.235.1-.22-.03-.014zM1255.29 226.38c-.03-.011 0 0 0 0z"/><path d="M1313.45 2.551c-.23.416-.53.832-.76 1.239 2.34.684 4.01 1.551 6.07 2.731-2.08-.884-4.22-1.6-6.41-2.138-1.11 1.908-6.15 1.42-5.61-1.042-17.55-2.26-55.73 1.997-58.91 24.498-.33-1.94 6.05-18.974 6.79-18.027-1.25-1.595-5.17 3.727-5.55 4.68a8.864 8.864 0 0 0 0 .003c-2.31 5.54-2.53 10.842-1.82 16.665.12.99 3.07 12.813 3.43 12.276 5.8 12.333 18.79 24.14 30.08 33.814v-.255c1.42-.075 2.23.898 3.2 1.568.72-.401 1.37-.396 1.95.02.47 1.01-1.96.966-2.28.676h-.52c4.84 4.122 12.68 8.925 15.75 14.66 2.43 4.527 1.08 9.278 4.75 13.522a15.206 15.206 0 0 0-7.58 7.322l1.86.9c.37.632.74 1.265 1.11 1.901-1.04.18-1.67.687-1.64 1.709 2.62 3.18-4.9 7.233-6.29-.208-11.39.756-24 4.037-32.98 11.358 1.94.613-.64 1.109-1.16 1.053-1.57 1.457-4.39 3.701-5.28 4.818 1.39-1.779 2.78-3.809 4.46-5.325-.16-.406.12-.667.86-.781 9.82-9.197 21.13-11.231 34.07-11.231a8.389 8.389 0 0 0-1.37-3.249c-6.69-.045-13.48 1.385-20.03 4.058.12.458.09.939-.06 1.385-.53 1.554-1.59-.255-1.72-.629-16.23 7.228-30.78 22.002-38.36 40.433.8-.277 1.6-.457 2.23-.651 3.34 1.031-1.19 3.837-3.07 2.787a96.873 96.873 0 0 0-1.55 4.549c.2-.186.5.1.62.277a1.09 1.09 0 0 1-.71.036c-1.81 6.067-3.13 12.624-2.7 18.99-.52-2.282.08-24.752 1.36-24.173-4.09-1.865-3.65 17.619-3.68 17.386 1.54 12.791 7.38 25.653 16.87 34.443-14.47-13.751-14.65-40.92-3.54-56.716-5.94 8.482-7.67 24.57-5.14 35.136-.1-6.649 1.07-15.647 4.01-21.661-1.97 4.016-1.86 12.954-2.17 17.937.26-.232.57-.394.91-.471.33-.077.69-.065 1.02.034 1.09-6.984 2.96-14.788 5.83-21.287-2.27 5.108-3.98 15.563-4.52 21.755 1.21.833 1.13 1.736-.25 2.709-.37 4.261-.28 9.27.84 13.879.9 2.233 1.9 4.292 2.83 6.095-4.08-10.04-1.97-23.694 2.3-33.158-2.94 6.53-4.19 26.631-1.72 34.275.46.872.88 1.662 1.24 2.379a3.754 3.754 0 0 1-.49-.667c-2.04-2.494-3.36-5.599-4.17-8.924-1.64-4.064-2.92-8.701-2.65-13.364-.43-.108-.82-.34-1.12-.667.48 10.751 1.46 18.716 10.65 26.041-8.17-11.295-1.42-34.119 3.99-45.475-4.9 10.336-11.08 40.264-.13 48.943-5.16-10.084-4.1-25.963 1.11-36.033.07-.15.15-.294.23-.435-.08.141-.15.291-.23.435-3.97 8.02-4.13 26.816-1.22 35.354a91.836 91.836 0 0 0 5.28 3.452c-8.46-9.07-4.09-32.185-.15-42.834.05-.146.11-.288.16-.424l-.16.424c-3.28 9.117-6.45 39.338 3.42 44.904-6.94-9.079-4.44-25.487-1.2-35.676-2.45 7.69-3.44 28.279 1.45 35.809.19.03 3.67 1.318 1.62.723.91.482 1.81.942 2.7 1.385a10.528 10.528 0 0 1-2.02-3.74c-.83.457-1.39-1.236-.42-1.612-2.66-11.852-2.3-26.573 1.08-38.408-2.58 9.436-3.76 36.014 2 44.078 6.41 3.15 14.3 7.328 21.64 7.203a4.124 4.124 0 0 1 .35-2.803c-1.07-.131-8.63-1.618-8.21-2.696.13-.363 6.9 1.058 8.02 1.144-7.98-7.247-7.55-26.719-3.11-36.019-3.23 6.925-2.59 30.022 3.23 36.014.89.066 1.78.086 2.67.061-2.26-10.96-1.67-25.049 1.77-35.831-.22.667.21 4.241 0 5.704a8.596 8.596 0 0 1 2.99.354c1.39-4.075 1.18-12.851.69-16.464.78 5.71 1.3 11.436.84 17.207a6.283 6.283 0 0 1 1.94 2.169c.77-2.812.81-5.907 1.67-8.688.04-.152.09-.305.14-.449-.05.15-.1.299-.14.449-1.33 4.397-1.11 12.309-2.22 17.381-1.42 6.441-4.37 11.566-7 17.547 3.61-8.192 5-17.497 7.5-26.06a4.158 4.158 0 0 0-2-.241c0 5.263-2.01 10.848-3.08 15.965 1-4.934.48-10.474 1.15-15.527-1.03-.474-1.77-2.494-2.54-3.366-1.33 9.078-2.92 20.794-1.67 29.858 7.09-.177 12.59-9.668 13.57-15.791-.8.141-1.45-.181-1.95-.964-.2-.831 1.84-.523 2.15-.465.96-9.061 1.23-18.184.78-27.285-.54.241-1.06.515-1.61.729.56-.214 1.07-.488 1.61-.729-1.14-14.156 1.62-32.801-6.97-45.006a4.78 4.78 0 0 0-2.06.864c.13 1.503.74 2.59 1.85 3.26-1.11-.67-1.73-1.757-1.85-3.26l-4.68.831a5.151 5.151 0 0 0-.17 2.173c.09.728.33 1.43.7 2.063 2.06-.297 3.72-.978 5.61-1.84-6.15 2.793-16.31 8.344-19.84 13.483a35.904 35.904 0 0 1 9.72-9.662c-.32-.045-.65-.086-.98-.122-.36-.751-.72-1.502-1.14-2.372l3.04-2.404c-4.87 2.878-12.05 5.756-15.34 9.743 4.17-5.081 9.23-9.331 15.68-11.034 0-1.056-.42-5.416 1.08-4.754 1.16.764 1.65 1.873 1.49 3.324 4.04.571 3.85-2.92 6.97-3.695.08.033 2.3 1.629 2.28 1.834l-1.21 1.313a23.49 23.49 0 0 1 2.88 5.263c.15-.692 2.74-10.981 5.13-7.43-1.63-2.424-5.02 13.281-3.81 12.312 2.69 13.668 3.33 29.861 2.86 43.834 1.23-1.352 2.8-1.877 4.72-1.576-.39-10.095-1.94-20.464-3.18-29.232-.43.113-.87.263-1.32.401-.72-1.463-.66-3-.53-4.546.42.599.93 1.137 1.5 1.596-.64-4.582-2.36-11.117-1.13-15.741.9-3.374 3.55-4.679 4.68-7.923-1.86-.682-10.64-6.064-9.06-9.184-.32-.92-.56-1.869-.7-2.834.34.837.75 1.642 1.23 2.408.64-.2 7.68 5.79 10.19 6.067 5.08.554 10.61-1.981 13.67-5.907 7.55-9.696-.09-14.358-4.42-21.76a15.017 15.017 0 0 0-4.41-1.352c2.7-.359 5.44 0 7.95 1.04a15.394 15.394 0 0 1 6.36 4.883 47.82 47.82 0 0 0 9.53-9.932c-.66.161-1.3.403-1.9.72l.06-2.033c-2.68 1.939-5.33 4.211-8.24 5.765 6.62-3.618 12.38-13.262 15.22-20.063l.07-.232a.63.63 0 0 1-.32-.301.603.603 0 0 1-.04-.437c.05-.145.14-.27.27-.35a.61.61 0 0 1 .43-.082c.51-1.808 1.17-3.57 1.98-5.263-.82 1.607-1.26 3.585-1.84 5.297a.632.632 0 0 0-.14-.04c-.11.386-.23.777-.34 1.17l.03.014-.1.219c-1.26 4.432-2.5 9.197-5.76 13.145.5.467.91 1.018 1.22 1.629 19.49-28.072 14.36-86.633-22.89-98.934zm-76.68 162.499c-1.08 1.267-2.16 1.52-3.22.759-.37-1.374.48-2.134 2.54-2.28.67.34.91.845.68 1.521zm59.34 21.821c-.16 3.602 1.88 9.295 1.38 13.96-.56 5.153-2.74 9.186-4.01 14.128 1.06-4.138 1.2-8.61 2.05-12.826 1.03-5.302.34-9.976.58-15.262zm-41.43-52.057c3.47-.964 3.59-.989 4.72.967 9.4-9.308 21.27-10.264 33.56-11.707-10.77 1.285-24.86 5.078-33.09 12.502.26.41.52.815.79 1.239-.78.673-1.39.119-1.85-.244-1.33 1.199-4.01 3.424-4.67 4.28 1.24-1.607 2.46-3.46 3.94-4.854-.93-.781-1.83-1.653-3.4-2.183zm39.19-4.371c-13.14.651-30.14 7.081-37.94 17.303 10.09-13.231 22.02-16.475 37.94-17.303zm-38.61 50.098c-.07 1.06-.15 2.122-.23 3.186l-2.3-.019c.13-1.151.26-2.301.4-3.449l-4.14-.214c-.28-4.014 2.92-3.219 6.03-3.211 2.13-.62 2.13-.62 3.61 1.109-.66 1.603-1.79 2.469-3.37 2.598zm4.52-23.841c-.79-1.183 2.32-.402.84.31a.933.933 0 0 1-.84-.31zm22.03 61.199zm.1-.142c-.02.048-.03.095-.05.139l-.07-.058a.331.331 0 0 1 .12-.081l.19-.554c.48.397.06.438-.19.543v.011zm1.11-63.459c.24-.942 1.65-2.283 2.59-1.302 1.08 1.108-1.74 1.729-2.59 1.305v-.003zm-5.59 5.795c.21-.277.79-.293 1.02-.365.53.088 4.29.077 3.77 1.46 3.45-2.12 8.51-6.569 11.53-9.381-4.48 4.217-8.77 9.769-13.76 13.434-.17.127 1.42-3.07 1.77-3.582-.66.404-6.21.737-4.33-1.566zm-6.35 28.953a5.335 5.335 0 0 1 4 .18c.14-.748.32-1.488.54-2.216.11-.324.17 2.028.09 2.46 1.08.475 2.23.774 3.4.884 1.64-1.646 2.04-2.158 4.11-.604-.04-1.084.02-2.169.2-3.239.14-.665.42 3.549.42 3.643l.8.197c.03.352.05.703.08 1.055l-.78.058c.06.931-.06 1.87-.03 2.804.63.183 1.25.368 1.89.515-.64-.147-1.26-.332-1.89-.515.32 10.339-1.57 21.198-.23 31.438-1.22-9.234-1.31-17.553-1.11-26.85a1.55 1.55 0 0 1-.58.554c-.05-.521-.11-1.045-.16-1.568.31.105.57.311.75.584.08-2.233.21-4.668.5-6.895l-1.89.144c-.13.147-.26.296-.39.44-1.83.056-3.57-.277-5.28-.725v.038c.09.039.08.056 0 .053-.22 11.109-2.75 22.941.21 33.898-3.09-11.392-3.84-22.346-.96-34.011-1.83-.363-5.94-1.502-3.69-2.322zm-2.98 15.084c.22-2.801.72-5.572 1.51-8.269.02-.047.03-.094.05-.141-.02.047-.03.094-.05.141-.78 2.54-1.17 5.516-1.51 8.28-.92 10.162.73 23.238 7.18 28.341-9.12-7.059-8.63-15.459-7.48-26.016.1-.757.2-1.538.3-2.336zm-.59-19.392c-1.36 7.976-2.22 16.254-1.88 24.343.51.382.97.789 1.5 1.141l-.9 1.319c-.14.041-.28.069-.42.105.56 6.283-1.63 16.159 5.96 18.819-7.5-2.247-8.02-13.375-7.91-19.916l-.53-.41-1.62.338c.06 3.352.52 6.607.8 9.937 1.39-.219 1.73.859.14 1.183.88 3.934 3.57 6.682 5.43 10.101-3.45-6.076-7.46-8.777-8-16.32-.45-6.269.14-15.126 1.86-21.204-1.01 3.571-.35 11.912-.23 16.303l1.62-.349c.2-.255.37-.465.53-.648-.12-8.355 2.38-17.362 3.65-24.75v.008zm29.2-50.816c-.33.042-.65.078-.98.111-13.1 1.626-22.11 10.735-31.77 18.561 10.57-8.546 15.45-16.425 30.95-18.497.28-.02.55-.044.82-.069.31-.036.63-.075.98-.106zm23.56-126.72c.12.052.24.113.35.184-.15-.075-.3-.153-.45-.225l.1.042zm6.83 24.213c-3.31-8.264-14.71-22.384-22.85-27.196 10.55 6.183 18.21 15.597 22.85 27.194v.002zm-19.44-23.824-.08.055.08-.055zm3.79 8.726c.46-.11.81.277 1.07.687 1.73.213 2.39 1.246 1.97 3.1 6.33 7.275 8.98 15.76 13.55 24.019-4.33-7.904-9.65-15.65-14.56-23.21-.7.277-4.15.706-4.57-.296.17-1.28.97-2.194 2.39-2.743-1.32-3.269-6.99-9.031-10.16-9.502 5.18.587 7.08 4.723 10.31 7.945zm12.25 72.735c.67-9.392.11-16.276-1.78-25.401.81 3.911 3.98 8.615 4.22 13.804.26 5.41-1.5 9.616-2.54 14.838.32-1.679-.01-1.549.1-3.241zm-2.6-45.489c-2.02 1.17-2.96-3.108-1.06-4.078 2.13 1.116 2.48 2.475 1.06 4.078zm-.28 17.037c-.61.308-1.55-1.958-.48-2.545.95.157 1.74 1.936.48 2.545zm4.66.624c.01.066.02.13.04.194.02.063.06.202.09.302 0 .016 0 .033.01.05.3.86.79 1.639 1.43 2.277l.09.088.06.668-.06-.668-.09-.088a6.015 6.015 0 0 1-1.43-2.277c0-.017 0-.034-.01-.05l-.09-.302c-.02-.1-.03-.128-.04-.194-.01-.067-.03-.108-.04-.164.01.067.03.122.04.164zm1.77 28.811.03.028c-.55 1.267-1.31 1.648-2.26 1.144.01-1.07.77-1.449 2.23-1.158v-.014zm-8.55 3.325c.09-.868 0-2.034.07-2.912.02-.244.03-.482.04-.723-.25-8.638-3.82-20.415-8.54-25.653 6.91 7.701 9.13 15.674 8.54 25.653.05 1.219.01 2.44-.11 3.654v-.02zm-10.57-16.345c-2.37-4.433-6.69-10.118-10.55-12.528 10.59 6.613 15.33 15.847 17.24 27.872-.75-5.133-4.19-10.829-6.69-15.344zm.52 15.17c-6.32-10.25-13.96-17.833-23.1-25.373 4.06 3.324 10.24 5.748 14.41 10.67 3.82 4.503 5.67 9.713 8.69 14.703zm5-40.447c-.88.185-1.43-.106-1.66-.872.06-1.327 4.12-.63 3.84.401a2.057 2.057 0 0 1-2.16.465l-.02.006zm.66 10.852-.33.105.06-.33.27.225zm-.98-3.353c-.28 1.86-2.82.49-2.64-1.025.24-1.922 2.62.203 2.66 1.02l-.02.005zm3.49.879.06-.324.28.218-.34.106zm-3.5-35.264-.36-.052.24-.25.12.302zm.88 6.175c-3.05-7.502-14.16-20.708-21.7-24.877 9.99 5.455 17.34 14.032 21.7 24.877zm-32.17-23.489c2.95 1.468 5.04 2.086 7.67 4.252.37-.615.8-.83 1.29-.645-.53-.388-3.22-2.865-3.33-2.928 10.62 6.723 18.31 16.782 22.34 28.667.05-2.682 5.67-1.13 5.26 1.468-1.17.599-4.19.136-5.12-1.041.79 2.845 1.98 5.48 3.16 8.191-5.27-11.893-11.94-25.162-21.78-33.906.23.723.39 1.465.48 2.217 4.32 3.776 8.87 12.577 10.79 17.951-1.67-4.687-8.42-12.32-12.13-16.544-1.62.524-3 .158-4.3 1.917 6.71 8.397 10.82 15.655 16.19 24.858 1.25-.712 3.66-.584 3.57 1.53-.48.761-3.61 3.93-4.77 2.33-.91-1.45-.56-2.707 1.04-3.771-5.94-7.757-9.72-16.968-16.56-24.102-.06.108-.12.219-.18.332l.54 2.474c-2.28-.576-2.28-.576-1.85-2.626-.2-.742-.6-1.485-.72-2.216-1.77-1.405-4.49-3.903-5.86-4.651 2 1.108 4.17 2.11 5.94 3.56.14-.36.36-.683.64-.94 1.59.36 3.13-.166 4.69-.207.07-.142.14-.277.2-.43-2.24-2.729-4.07-4.17-7.2-5.74zm-2.8 8.632-.3-.102.24-.15.06.252zm13.12 19.816c-2.39-7.202-14.14-18.777-20.48-23.583 8.33 6.252 16.97 13.004 20.48 23.583zm-8.66-4.598c.21-.12.43-.22.65-.3.25.779.37 1.217.19 1.466 2.4 3.125 4.53 7.04 5.52 10.893 1.83.424 2.99 1.485 4.06 2.983-.96 2.086-2.44-.678-3.41-1.038.87 1.642 1.66 3.324 2.51 4.97-.91-1.812-2.28-3.325-3.24-5.112-.26 0-3.13 1.643-3.87.751-.73-.892 2.07-3.105 2.84-2.845a9.92 9.92 0 0 0-.63-1.247l-.13-.027c-.34.025-.67 0-1-.075-2.39.066-4.67 1.584-4.76-2.061 1.65-.205 2.94.277 3.73 1.662.32.189.67.331 1.03.424.33-.011.67.014 1 .075h.12c-1.76-3.07-3.76-6.06-5.72-9.007h-.14c.02-.041.04-.075.06-.116-3.76-5.68-8.33-12.957-13.01-17.104 5.33 4.687 10.25 9.757 14.2 15.708zm-2.22 6.39.98 1.286-.98-1.285zm-.05 1.053c.15.226.29.445.43.657l-.43-.657c-4.06-6.094-12.24-16.203-18.22-21.8-.4-.362-.79-.725-1.2-1.085.39.338.79.7 1.2 1.086 7.03 6.455 12.9 13.674 18.21 21.8h.01zm-4.72 3.79c2.63 4.125 5.25 8.203 7.88 11.954-2.8-3.934-5.36-7.945-7.88-11.954-4.99-7.787-10.02-15.749-15.31-21.993 5.95 6.995 10.58 14.491 15.32 21.993h-.01zm-13.15-4.363c.24.645.6 1.243 1.04 1.767l-.7 1.006c3.22 6.35 10.28 15.237 16.52 19.101.22.136.44.277.67.4-.22-.125-.45-.261-.67-.4-9.81-5.881-17.4-15.757-22.03-26.334.38.872 3.61 4.213 4.64 5.607.17-.33.37-.646.6-.945l-.07-.202zm43.78 86.575c-1.67.515-1.74-.986-1.67-2.047l-.19-.022c.89-5.696 6.69.573 1.86 2.069zm1.56-21.182c-.4-.864-.39-.634.32-1.011.5.529.4.864-.32 1.011zm3.15 19.761c.54.554.42.908-.35 1.064-.53-.552-.41-.904.35-1.064zm1.94-20.049a.495.495 0 0 1-.16-.109.517.517 0 0 1-.1-.168c.42-.41.74-.404.96.017a4.67 4.67 0 0 1-.69.26h-.01zm-9.54-8.571c.39 1.438 1.69 10.965 1.61 11.147-1.39.023-2.26-.786-2.62-2.426-1.05-3.289.79-6.555-.75-9.824-.85-.579-1.86-2.12-1.96-3.122-8.21-11.211-26.28-21.72-38.3-34.352-1.06.17-1.13.092-.81-.87-8.06-8.743-13.1-18.52-9.97-30.24l-.69-.045c-.96-1.812.02-2.933 1.89-3.366a8.86 8.86 0 0 1 2.42-3.507 11.299 11.299 0 0 1-1.08 3.35c.83-.023 1.67.05 2.48.027-.17-.859-.44-1.737-.66-2.593.31 1.191.56 1.563 1.14 2.563.12 0 .24 0 .35-.03.08-1.771 2.85-1.705 2.81.437-.59 1.136-1.46 1.432-2.61.89 2.88 8.235 8.5 13.693 13.05 20.796-4.56-7.081-11.81-10.527-13.63-20.584-.53.702-1.05 1.406-1.57 2.111-.47.396-.91.494-1.32.294 2.34 6.189 3.3 20.44 9.55 23.974-7.76-4.474-9.49-16.486-9.93-24.151l-.04-.022-.62-.04c-4.4 21.468 18.39 38.16 33.07 50.26.72-1.047 1.27-1.087 1.63-.12-.08.197-.22.364-.4.481-.17.117-.38.177-.59.174 7.82 6.288 14.14 16.898 24.09 20.145 1.76.576 12.96 1.369 12.92 1.92-.16 2.986-18.11-2.39-19.45-3.277h-.01zm17.33 11.671c3.33-2.806 7.24-7.73 9.03-11.635-1.04.124-2.07.238-3.11.352-1.35 2.41-2.47 4.878-3.61 7.399 5.4-12.004 8.97-26.684 7.54-39.834-.5-.034-.99-.102-1.49-.203v.059h-.09c-.04 1.072-.74 1.57-1.86 1.684.1-1.798.49-3.568 1.17-5.239a.59.59 0 0 0-.06-.512c2-1.585 2-1.585 4.36-.222l2.01-.091 1.01 1.74-2.42-.017c.3 1.483.72 2.942 1.24 4.363l-2.46-.853a1.7 1.7 0 0 0-.76-.554c1.94 10.386.64 22.994-4.57 32.268 1.03-.11 2.08-.224 3.11-.349 4.25-9.275 8.3-19.946 8.56-29.678-.47 16.874-4.39 30.158-17.6 41.322zm14.8-53.137c-.03-.244-.06-.488-.1-.732.04.244.07.488.1.732.07.75.11 1.505.11 2.26l-.21.527.21-.527c-.04-.762-.04-1.515-.11-2.26zm-.63 26.37c-.3.975-.95 1.366-1.95 1.172-.84-1.372-.25-2.358 1.78-2.959.06.596.11 1.194.17 1.787zm-1.39-41.962c-2.93-.097-5.99 1.078-8.93 1.333l.07-.094c-.42-7.738 4.95-3.325 8.37-2.266-5.12-10.007-9.01-21.395-17.31-28.482 12.78 10.63 16 24.171 22.42 38.998-1.36-3.214-3.19-6.275-4.62-9.489z"/><path d="M1343.27 80.062a32.864 32.864 0 0 0-1.98 5.264c.05.008.1.021.14.038.58-1.726 1.02-3.704 1.84-5.302zM1239.5 213.782c.14.365.31.718.5 1.056.07.077.13.157.2.235-.24-.418-.47-.853-.7-1.291zM1251.61 181.331l.16-.424c-.06.136-.11.278-.16.424zM1247.69 185.359c.08-.144.15-.294.23-.435-.09.133-.16.285-.23.435zM1258.23 184.719a9.159 9.159 0 0 0 0 0z"/><path d="M1240.21 215.073c-.07-.077-.13-.158-.19-.235.14.239.3.463.49.667-.36-.709-.78-1.507-1.24-2.379.08.229.16.447.24.656.22.438.45.873.7 1.291z"/><path d="M1239.27 213.126c-.18-.37-.37-.744-.58-1.122.25.607.52 1.2.82 1.778-.08-.207-.16-.426-.24-.656zM1294.72 196.16c.04-.149.09-.299.14-.449-.05.15-.1.297-.14.449zM1316.75 8.225zM1269.66 195.709zM1280.41 60.132c.22.139.45.277.67.4-.23-.14-.45-.264-.67-.4zM1268.1 204.13c.34-2.77.73-5.74 1.52-8.28-.79 2.7-1.3 5.475-1.52 8.28zM1276.71 42.621c2.53 4.009 5.08 8.034 7.88 11.954-2.64-3.75-5.26-7.829-7.88-11.954zM1263.2 17.032a44.76 44.76 0 0 0-1.2-1.086c.4.36.8.723 1.2 1.086zM1295.72 134.034c.32-.034.65-.07.97-.112-.33.031-.65.07-.97.112zM1287.18 41.832c.33.075.66.1 1 .075a4.682 4.682 0 0 0-1-.075zM1325.62 61.778zM1336.57 53.315zM1336.7 55.575l-.21.527c.06-.175.13-.352.21-.527zM1318.7 93.379c.12-1.208.16-2.422.11-3.635-.01.241-.02.48-.04.723-.07.878.02 2.045-.07 2.912zM1325.52 61.429l.09.302c-.02-.1-.06-.202-.09-.302zM1261.67 55.176c-.02.061-.03.117-.05.172.27.29.53.579.81.87l.21-.033-.97-1.009zM1325.44 61.072c0 .055.03.11.04.164-.01-.053-.03-.109-.04-.164zM1274.77 191.368c.24.054.5.092.75.113v-.053a5.968 5.968 0 0 0-.72-.218l-.03.158zM1294.32 116.289c.28-.055.54-.122.81-.202-.43-.055-.85-.108-1.28-.149l.47.351zM1299.43.399c.02 1.25 6.62 1.903 7.74 2.025a5.9 5.9 0 0 1 1.16-1.44V.941c-.82-.197-8.92-1.62-8.9-.543zM1241.88 132.762c-.86.917-11.6 13.375-10.11 14.256.59.354 12.42-14.256 13.36-15.184 5.74-5.682 13.38-11.6 21.24-14.074.21-.501.53-.946.95-1.296a66.44 66.44 0 0 0-25.44 16.298zM1267.77 116.292l.49.831.33-.13c.55-.191 21.64-4.762 21.6-4.269.22-2.568-21.15 3.058-22.42 3.568zM1362.61 98.346a54.362 54.362 0 0 0-5.06 5.422c-1.07 1.296 5.44-3.527 6.78-4.677l-1.65-.573c-.02-.072-.05-.128-.07-.172z"/><path d="M1409.52 77.275c-5.41-2.338-12.02-2.258-17.65-.795-12.65 3.285-20.16 13.48-29.26 21.852.02.058.05.114.07.17l1.65.575c8.97-7.693 15.64-18.214 27.71-21.608 4.26-1.194 8.98-1.538 13.31-.388 1.37.363 16.31 9.929 15.72 10.4 1.41-1.12-10.59-9.796-11.55-10.206zm-10.83-.978-.33-.277c.11-.08.22-.219.34-.233.54.364.54.534 0 .51h-.01zM1332.16 132.016c-1.15.147.41-2.77.79-3.089.36.779-2.52-16.898-4.55-15.79-1.2.662 3.1 11.818 2.62 14.488-.39.604-1.19 2.086-.78 2.771a15.131 15.131 0 0 1-3.69 5.481 15.166 15.166 0 0 1-5.66 3.4c-.63.338-5.39 3.291-6.39 2.217a39.163 39.163 0 0 0 1.62 3.679c9.13-1.87 15.4-8.708 20.14-16.786-.95.529-3.2 3.524-4.1 3.629zM1426.55 142.918a.452.452 0 0 0-.16-.089.88.88 0 0 1 .16.089zM1424.25 148.073a156.5 156.5 0 0 0 1.47-.554l-1.47.554zM1400.98 138.022c-3.71.555-7.81 1.552-11.54 1.663 3.69-.1 8.71-.859 14.02-2.045-.82.131-1.64.259-2.48.382zM1396.07 148.658c-2.37.376-5 1.05-7.45 1.127 2.33-.072 4.66-.321 6.95-.742.15-.147.32-.276.5-.385zM1417.69 90.9c-.92 0-1.85.052-2.77.141.9-.008 1.83-.044 2.77-.142zM1348.29 124.11c-.2.108-.41.219-.62.324.21-.116.41-.227.62-.324z"/><path d="M1426.4 142.829c.14.067.26.163.36.281.1.118.17.255.22.403.12-.227-.03-.46-.58-.684zM1428.43 134.111l.7-.291-.7.291z"/><path d="M1413.6 84.337c-24.82-14.248-47.74 14.394-63.44 29.839.03.03.07.058.1.091.02.632-.18 1.251-.56 1.759l-.6-.831c-6.01 5.87-10.77 10.048-13.62 10.067a3.46 3.46 0 0 1-.43 1.94l.05-.023c1.36-.64 13.15-9.468 13.48-9.313 10.86-11.691 24.87-24.205 39.5-31.222 7.38-3.537 14.16-4.803 21.76-1.83.78.31 13.64 7.911 11.99 9.108-.49.357-3.69-2.71-4.1-3.025h-.04c-.95.097-1.87.133-2.78.141-6.91.66-13.94 3.471-20.63 4.535 2.59-.41 7.38-3.69 11.03-4.291 3.33-.554 6.4-.216 9.6-.244.93-.089 1.86-.139 2.78-.141h.04a36.052 36.052 0 0 0-12.14-6.22c-7.17.831-17.44 3.99-23.12 8.588.74 1.18.47 2.066-.81 2.657-1.82-.29-1.53-3.338.17-2.992 7.88-5.366 14.05-7.887 23.58-8.31-15.35-4.303-33.15 13.28-43.49 22.439-6.34 5.623-12.52 11.585-17.36 18.577-1.2 1.798-7.03 16.204-5.31 15.772-4.59 1.257 4.58-17.775 6-19.525-1.95 1.798-4.19 3.183-6.3 4.745-.25 8.619-14.54 18.561-22.07 19.985 8.11 14.838 24.98 24.678 44.07 27.59-7.6-.277-15.5-2.217-22.44-5.278-.61-.277-19.53-11.956-18.54-12.763-4.68 3.857 26.14 16.758 25.39 16.564 10.26 2.671 20.5 2.61 30.98 2.313 10.22-.291 20.34-.637 29.95-4.59 6.51-2.676 12.42-6.574 17.05-11.896.98-1.127 7.71-10.25 6.13-10.882.68.277-14.22 16.165-14.87 16.636-7.98 5.865-17.11 8.339-26.83 9.375 13.61-2.615 28.37-8.699 35.9-20.952-6.56 3.488-15.39 6.898-23 7.203 4.87-.214 17.81-5.156 23.01-7.245 11.27-18.364 10.72-56.425-10.08-68.351zm-22.82 89.204.6.426c-1.14.579-1.36-.299-.6-.415v-.011zm36.23-29.67c-.3 3.482-20.11 6.648-23.24 6.845 3.1-.188 9.3-3.878 13.25-4.71.44-.091 9.29-1.271 9.95-2.493a1.039 1.039 0 0 0-.58-.684c.56.224.71.457.58.684.04.115.06.237.04.358zm-28.66 4.673c4.03 1.269-4.39 2.111-2.78.49-2.29.425-4.61.676-6.94.751h-.56.56c2.44-.077 5.08-.751 7.45-1.127-.19.109-.35.238-.51.385.87-.153 1.77-.327 2.68-.516a4.977 4.977 0 0 0-.51-.124c1.16-.153 2.29-.33 3.41-.529 8.4-2.014 17.69-5.281 23.64-8.212.35-.177.71-.351 1.06-.534-.34.177-.7.354-1.06.534-7.78 3.909-15.16 6.71-23.64 8.212-.98.235-1.94.454-2.9.653l.1.017zm-1.11 7.438c-1.65-.554-1.67-.598-.84-1.914.51.515.8 1.196.84 1.914zm-13.27-49.516c.83-.069 1.47.41 2.03 1.086.44.263.87.54 1.29.831.05.614-.07 1.229-.35 1.781 11-5.208 22.93-6.881 34-11.4-3.34 1.333-6.36 2.981-9.81 4.131-.03.055-.08.111-.11.169a2.97 2.97 0 0 1-1.35.424c-3.03 1.46-6.4 2.061-9.6 2.942-1.39.385-13.7 4.205-13.72 4.155-.71.122-.92-1.124-.97-1.554.21-.178.38-.406.49-.663.11-.256.16-.535.13-.813-.65-.4-1.33-.764-2.03-1.089zm.71 46.386-.83 1.186c-2.04-2.358.64-2.012.83-1.186zm16.76-40.641c.67.277.86.807.6 1.386-.49 1.069-1.99-.682-.6-1.386zm-13.24 2.851-.19.155c-.04-.069-.12-.144-.11-.205.01-.061.11-.113.17-.169.04.069.08.125.13.219zm-2.83-2.019c.06-.161 1.85-1.688 1.85-.064-.25.217-.57.344-.9.36-.33.016-.65-.08-.92-.272l-.42.192.39-.216zm20.12 2.659c5.95-1.784 12.17-2.546 17.91-4.903-11.38 4.709-23.9 9.577-36.36 10.884 4.92-.521 12.9-4.291 18.45-5.981zm4.61 8.07c.79.166 1 .607 1.02 1.141 4.98-2.147 10.12-2.493 14.98-5.15-10.82 5.94-23.46 11.181-36.14 11.608 4.11-.133 12.26-3.491 16.8-4.951 1.27-.41 2.5-.781 3.73-1.252-.37-.349-.37-.875-.39-1.396zm2.99-1.418c.24-.139.49-.256.75-.35l.04.037c-.94 1.637-.6.18-.79.313zm-23.65 17.322c3.73-.102 7.83-1.091 11.54-1.662.84-.125 1.66-.256 2.48-.391 8.92-1.997 18.67-5.208 24.32-8.56-8 4.776-15.4 7.065-24.32 8.56-5.31 1.195-10.33 1.954-14.02 2.053zm10.77 4.84c-1.53-.388-1.71-.925-.52-1.612 1.58.399 1.75.936.52 1.612zm-3.37-24.163.02.02-.02-.02zm-8.59 13.04c-.12.033-.28.128-.34.092-.06-.036-.1-.197-.14-.305.28-.205.44-.13.48.213zm15.6 8.103c5.65.131 18.28-4.787 24.58-7.385l.7-.291-.7.291c-7.78 3.255-15.64 7.582-24.58 7.385zm26.44-16.655c-.51.241-1.05.499-1.58.721-7.36 3.296-16.03 6.316-24.24 5.842 5.03.305 17.95-3.767 23.46-5.54.26-.084.52-.183.78-.291.52-.237 1.05-.481 1.58-.732zm-24.79-2.1c.19.059.2.186.02.38-.1-.044-.26-.069-.28-.139-.02-.069.04-.135.09-.213a35.3 35.3 0 0 1-3.65.405c5.31-.305 19.82-5.497 25.2-8.106-6.5 3.089-13.96 6.443-21.39 7.673h.01zm19.84-17.572c.23-.127.47-.232.72-.316v-.022h.02-.03c-.83 1.615-.56.228-.73.338h.02zm-2.18.344c.28-.04.56-.095.83-.166l2.79-.942c-.85.304-1.84.703-2.79.942-5.12 1.723-10.62 3.496-16.09 4.391.02.025.02.056.02.085-.11.851-2.48 1.543-2.56.535a.4.4 0 0 1 .09-.277c-1.32.15-2.65.233-3.98.249 1.54-.055 3.07-.259 4.56-.609.23-.077.47-.129.71-.155 5.26-1.2 11.74-3.444 16.4-4.053h.02zm-1.55-10.214c-8.28 1.878-16.38 5.302-24.59 7.252 5-1.163 10.62-6.225 17.09-6.612 2.67-.161 4.86-.064 7.5-.64zm-27.07 2.676h.01c5.83-2.67 12.03-3.228 18.27-4.156-5.77.854-11.97 3.78-17.62 5.38-.77 1.629-2.64 3.38-4.26 1.743-2.97 1.385-5.88 3.357-8.86 4.635 1.62-.696 6.28-4.289 8.4-5.724.09-1.172 3.25-2.061 4.06-1.875v-.003zm-16.35 3.49c8.39-10.011 19.62-11.743 31.66-13.599-12.66 1.912-22.46 7.743-32.41 15.14-.69-.468-.44-.981.75-1.541zm2.96 7.757c3.15 1.33-3.16 4.244-3.64 4.352-1.93.413.08-5.85 3.64-4.354v.002zm-1.87 24.612c-.08.57-1.67 1.041-1.73.357-.03-.576 1.78-.715 1.73-.36v.003zm-17.31-23.667 1.24.496-.62.618a1.396 1.396 0 0 1-.46-.485 1.325 1.325 0 0 1-.19-.64l.03.011zm8.13 7.917c-1.81.225-2.7.555-3.12-1.554l-3.91-.665c.35-.953 2.96-.243 3.58-.808a5.903 5.903 0 0 1-.37-2.53c-4.64 2.471-8.89 5.837-13.32 8.757.25.105.34.452.12 1.227-.68.233-1.3.277-1.75-.174a51.939 51.939 0 0 1-3.06 1.759c1.02-.568 2-1.195 2.94-1.878a1.565 1.565 0 0 1-.18-.277 7.48 7.48 0 0 1 1.45-.662c4.28-3.253 8.71-7.405 14.01-9.588 1.11-3.688 4.57-3.602 6.25-.277.23-.377.49-.743.73-1.109 2.66.372.47 3.001-.12 3.555-.91-.643-1.2-.87-1.12-1.286-6.76 1.532 2.85 4.541 2.81 4.236.15 1.05-3.98 1.15-4.23 1.18l.27.712-.27-.712-.35.042c-7.49 6.818-18.61 7.965-26.85 11.452 8.39-3.524 18.91-6.551 26.5-11.4h-.01zm-12.01 4.552v.261c.01-.089.01-.172.01-.261h-.01zm4.68-5.782c0-.044.35-.083.38-.085.27.522.16.777-.33.764a3.853 3.853 0 0 1-.04-.679h-.01zm2.99.33c.04-.076.1-.143.16-.196a.615.615 0 0 1 .24-.111c.71.676-.53.861-.4.307zm6.69 1.499a1.392 1.392 0 0 0-.93-.13c.32-.07.65-.029.93.116v.014zm-8.56 10.25-1.27-.208c-.24-1.906 1.16-.46 1.27.186v.022zm-6.3-1.956a.817.817 0 0 0-.07 0c-.3.466-4.06 3.856-3.71 1.092.1-.809 3.24-1.108 3.71-1.092l.03-.044.04.044zm18.77-.471c-11.46 3.704-23.16 5.638-34.22 8.048 11.33-2.493 23.25-4.538 34.22-8.07v.022zm-.96 9.599c-.06.978-1.58-.086-.48-.642a.625.625 0 0 1 .48.62v.022zm-33.59 7.261.04-.086c-.1.228-.13.476-.1.721a.723.723 0 0 1-.05-.325.689.689 0 0 1 .11-.31zm24.05 24.282c-1.21-.443-1.69-1.372-1.47-2.787.06-.277.77-4.191 1.26-5.144-2.1-.092-4.21-.499-6.3-.734 4.69-1.463-8.02 2.562-3.94-.524-8.14-.801-16.61-4.987-23.92-8.441-.33.382-.15.992.46 2.122-.19 1.022-.75 1.983-.93 3.006 9.9 8.311 24.61 15.649 37.72 15.815-15.37-.277-25.92-4.861-37.72-14.619 0 .034 0 .061.02.095a8.486 8.486 0 0 0-.93 0 4.87 4.87 0 0 0-2.16-2.906 19.725 19.725 0 0 1-2.41-2.544c-.14-.182 1.88 1.147 2.28 1.544.28-3.879-1.9-5.264-6.19-4.682v-.878c1.84.295 3.7.402 5.56.318l-1.11-1.44c-.19-.358 1.82 1.227 2.07 1.421 2.17-.042 4.35.124 6.52.188l1.07.646c-.04.554-.07 1.108-.11 1.662l-.83.111a2.71 2.71 0 0 0-2.2-.366c5.72 2.637 11.8 4.781 18.01 6.025.94-.908 2.1-1.199 3.45-.872-.19.484-.42.956-.68 1.413 2.23.484 4.18 1.351 6.44 1.221.75-.058 1.18.191 1.27.754 1.57.374 3.31 1.005 4.92 1.108.97-1.033 3.34-.443 4.39.13-1.37.042 1.59-.039 2.17-.019-.68-.007-1.36.031-2.03.113.62.485-4.53 8.289-4.68 8.264zm-6.7-15.034c.08.054.14.126.19.21-.93 1.499-2.41-1.053-.19-.21zm-.59-.626.37-.023-.15.291-.22-.268zm9.44 2.728c-.94.172-1.57-.277-1.89-1.321-.12-1.953 3.59.46 1.91 1.321h-.02zm3.01-6.227.28.235c0 .554 0 1.117.02 1.69-3.12.114-5.24 2.66-6.56-.831.11-.286.27-.548.48-.77a65.585 65.585 0 0 1-17.5-1.457 61.148 61.148 0 0 0-3.23 1.59v-2.216c-3.95-1.056-8.33-1.624-12.08-3.275 2.17.956 9.35 2.08 12.39 2.31l.3-.864c.41.072 3.06.258 3.18 1.399 2 .382 4.15.352 6.18.574.48-.879 2.25-.596 1.62.088 3.77.036 7.45.554 11.19.712.43-.146.83-.332 1.22-.554.64.149 1.24.432 1.77.831 2.27.094 4.6-.662 6.83-.944-2.09.229-3.99 1.221-6.09 1.482zm-10.85-3.602c.07-1.014 3.08-1.49 3.53-.59.45.901-3.58 1.396-3.53.59zm17.5-2.089c-.22-.024-.26-.119-.11-.277.21.017.24.111.1.269l.01.008zm-13.23-1.723c-.27.704-1.56.948-1.63.078-5.92.366-13.25.809-19.28 0 10.02 1.271 26.76-1.676 36.85-3.602-5.34 1.034-10.39 3.159-15.95 3.516l.01.008zm18.44-29.745c-.24.255-.54.443-.88.549-.34.105-.69.123-1.04.053.6-.302 1.25-.508 1.91-.61l.01.008zm-1.03 8.669c-.46-2.313-.19 2.463 0 0zm5.16 49.173c.63-.395.96-.235 1 .482-.81.205-.69.396-1.01-.491l.01.009zm13.88-5.513c6.08-1.939 13.91-2.823 18.55-7.339-8.51 8.491-26.62 12.597-38.47 13.073 5.37-.224 14.07-3.947 19.93-5.742l-.01.008zm-18.43-3.981c9.99 1.831 30.88-7.48 41.79-11.597.49-.184.98-.369 1.46-.554-.46.169-.95.352-1.46.554-12.32 4.718-28.34 14.232-41.79 11.589v.008z"/><path d="M1397.74 148.394c.18.033.35.074.52.125.95-.199 1.92-.418 2.9-.654-1.12.2-2.26.377-3.42.529zM1343.53 141.145zM1358.11 122.897v-.261a1.14 1.14 0 0 0 0 .261zM1428.69 125.562c.54-.222 1.07-.48 1.58-.721-.52.242-1.04.482-1.58.721zM1423.98 105.347c.95-.239 1.94-.638 2.79-.942l-2.79.942zM1386 107.552c-.55-.676-1.2-1.155-2.03-1.086.7.326 1.38.691 2.03 1.091v-.005zM1424.79 139.654zM1352.49 121.287c-.42.321-.84.632-1.26.931.03.041.07.081.11.119.55-.344 1.1-.694 1.63-1.053a.787.787 0 0 0-.48.003zM1405.31 122.769l.18-.027a.617.617 0 0 0-.15-.031l-.03.058zM1406.73 109.56c-.24.056-.47.106-.71.155-.22.063-.42.188-.58.361.82-.091 1.63-.204 2.45-.338-.1-.183-.62-.241-1.16-.178zM1323.06 110.743c.43-.277 2.14 16.273 1.83 17.065-1.24 3.413-4.22 5.94-7.33 7.536-.6.307-12.4 2.493-12.35 2.266-.62 3.019 15.77-2.962 17.67-4.987 3.82-4.031 5.07-8.826 3.92-14.278-.2-.945-2.68-8.269-3.74-7.602z"/></g><defs><clipPath id="a"><path fill="#fff" transform="translate(1222)" d="M0 0h209v236H0z"/></clipPath></defs></svg>