<svg width="70" height="59" fill="none" xmlns="http://www.w3.org/2000/svg"><path fill-rule="evenodd" clip-rule="evenodd" d="M2.523 23.524C.181 31.87-.355 40.616.203 49.204c-.253 2.73 1.233 5.366 3.208 7.247 2.89 2.737 8.585 2.364 12.322 1.978 6.807-.649 9.834-6.856 10.233-12.835.305-10.336.38-21.196.358-31.55-.005-.295-.004-.604-.003-.923.002-1.364.006-2.888-.411-4.098-1.012-3.38-4.162-4.593-7.326-3.944-.64.203-1.256.47-1.838.798a29.129 29.129 0 0 0-5.295 3.677 28.937 28.937 0 0 0-7.542 10.069c-.17.348-.344.824-.505 1.265-.09.25-.178.488-.258.685-.165.409-.334.98-.482 1.48l-.14.471zm-2.32 25.68c.987-8.74 2.376-17.444 5.538-25.67a26.538 26.538 0 0 1 8.28-11.074c.34-.285.843-.655 1.254-.957.083-.06.162-.117.234-.171 0 0 2.548-2.172 3.928-2.29 1.38-.119 2.137-.022 2.448 1.47l.097.714.022.788c-.022 3.577-.038 10.187 0 13.828.046 5.251.109 10.502.233 15.75l.085 3.829a16.977 16.977 0 0 1-.418 3.546c-.598 2.758-2.118 5.443-4.875 6.529-1.775.634-3.703.882-5.572 1.1-2.19.189-4.483.301-6.504-.585-2.47-1.438-4.464-3.928-4.75-6.807z" fill="#78C081"/><path d="M55.647 25.828c1.197 2.96 3.377 7.588 4.13 13.147-.54-10.16-1.243-10.187-1.59-11.745a50.844 50.844 0 0 0-2.23-7.33C53.302 13.748 48.54 8.685 42.486 5.573a5.395 5.395 0 0 0-1.656-.577c-.333-.018-.526-.073-.99-.073-3.16-.176-5.55 1.843-6.095 4.807-.286 1.284-.209 2.86-.209 4.126-.037 6.871-.052 15.398.063 22.308.046 2.484.078 4.968.146 7.452-.01 1.34.093 2.68.311 4.005 1.043 6.015 4.523 10.663 11.172 10.93 3.306.235 6.833.371 9.909-1.092 2.412-1.303 3.395-3.504 4.101-5.933.462-1.588 1.088-3.213 3.717-5.81-2.629 1.558-3.5 2.342-5.258 6.75-2.356 3.924-4.048 4.403-8.45 4.133a32.448 32.448 0 0 1-3.654-.486c-1.096-.215-2.294-.422-3.275-.94-3.023-1.51-4.271-4.898-4.623-8.044a21.083 21.083 0 0 1-.084-3.431c.106-4.324.23-10.528.23-14.909s.066-10.64 0-14.957c.013-1.279-.264-3.234.405-4.315.473-.777 1.247-1.019 2.525-.422 5.404 2.572 9.82 6.767 12.598 11.97.809 1.629 1.761 3.483 2.28 4.764zM30.182 12.227a.898.898 0 0 0-1.61-.794L24.333 20a.898.898 0 0 0 1.61.794l4.24-8.568z" fill="#78C081"/><path d="M29.119 12.227a.898.898 0 0 1 1.61-.794L34.968 20a.898.898 0 0 1-1.61.794l-4.24-8.568z" fill="#78C081"/><path d="M28.721.896a.897.897 0 0 1 1.795 0v11.355a.897.897 0 0 1-1.795 0V.896zM56.456 55.11a50.246 50.246 0 0 0-1.707-2.982c-.303-.488-.62-.952-.93-1.414-.08-.12-.17-.23-.256-.346-.086-.116-.18-.225-.273-.339-.094-.113-.196-.22-.3-.336a1.666 1.666 0 0 0-.165-.161c-.056-.055-.116-.11-.17-.17.365.074.707.2 1.01.37.154.083.3.174.437.272.14.096.272.199.397.307.492.427.904.907 1.222 1.426.322.515.559 1.06.707 1.624a3.33 3.33 0 0 1 .028 1.748z" fill="#78C081"/><path d="M56.193 49.34a3.78 3.78 0 0 0-1.2-1.546 5.642 5.642 0 0 0-1.734-.91 9.963 9.963 0 0 0-1.968-.398 33.328 33.328 0 0 0-2.076-.148l.587-.586c.113.855.246 1.705.339 2.563.056.427.096.86.166 1.256.027.203.07.396.121.585.053.189.12.375.201.555.33.733.857 1.37 1.53 1.85.707.51 1.541.845 2.428.971a4.782 4.782 0 0 1-2.756-.498 4.862 4.862 0 0 1-2.048-1.94 4.762 4.762 0 0 1-.483-1.325c-.101-.46-.157-.885-.224-1.3-.134-.86-.247-1.713-.36-2.568l-.084-.636.674.05c.723.05 1.443.137 2.155.26.733.12 1.444.332 2.115.63.679.304 1.28.74 1.762 1.28.48.519.779 1.166.855 1.855zM57.419 49.008a3.726 3.726 0 0 1-.479-1.252 5.392 5.392 0 0 1-.082-1.348 7.805 7.805 0 0 1 .643-2.52 8.274 8.274 0 0 1 1.324-2.131c.281-.32.597-.6.94-.832.34-.222.699-.41 1.072-.562.365-.16.737-.278 1.103-.39.366-.113.726-.211 1.093-.311.726-.19 1.434-.377 2.104-.62a6.35 6.35 0 0 0 1.802-.969 4.432 4.432 0 0 0 1.365-1.742c.238-.591.437-1.216.656-1.822-.061.177.14.8.173 1.014.184 1.138.263 2.284.236 3.419a17.941 17.941 0 0 1-.16 2.212l-.045.281-.155.8c-.073.35-.152.703-.248 1.056a7.098 7.098 0 0 1-.886 1.987 6.82 6.82 0 0 1-.638.82c-.236.248-.47.474-.713.69-.486.432-1.002.82-1.546 1.158a10.448 10.448 0 0 1-3.502 1.396 13.93 13.93 0 0 0 4.462-3.275 8.238 8.238 0 0 0 1.096-1.476 6.259 6.259 0 0 0 .62-1.755c.069-.319.127-.647.178-.985l.073-.512.038-.258.03-.238c.062-.672.09-1.35.082-2.034-.001-.694.395-.025-.275.514a6.861 6.861 0 0 1-2.167 1.14c-.746.248-1.497.407-2.225.567-.729.16-1.457.309-2.124.525a5.197 5.197 0 0 0-.948.403 3.996 3.996 0 0 0-.829.612 7.518 7.518 0 0 0-1.369 1.753 7.359 7.359 0 0 0-.863 2.186 4.324 4.324 0 0 0 .164 2.499z" fill="#78C081"/></svg>