<svg width="123" height="42" fill="none" xmlns="http://www.w3.org/2000/svg"><path d="M1.034 15.902V1.39h7.391c1.8 0 3.1.387 3.904 1.161.816.76 1.225 1.99 1.225 3.69s-.409 2.937-1.225 3.711c-.803.774-2.104 1.161-3.904 1.161H3.962v4.79H1.034zm2.928-7.525h4.297c.83 0 1.433-.166 1.807-.498.387-.345.581-.891.581-1.638 0-.732-.194-1.264-.581-1.596-.374-.346-.976-.518-1.807-.518H3.962v4.25zM18.876 16.089c-1.398 0-2.429-.263-3.093-.788-.65-.539-.976-1.396-.976-2.57 0-1.203.36-2.06 1.08-2.571.72-.526 1.882-.788 3.487-.788h3.24c-.056-.733-.285-1.258-.686-1.576-.387-.332-.997-.497-1.827-.497-1.343 0-2.131.476-2.367 1.43h-2.699c.166-1.327.658-2.287 1.474-2.882.817-.608 2.049-.912 3.696-.912 1.8 0 3.107.373 3.924 1.12.816.732 1.225 1.92 1.225 3.566v6.281h-2.74v-1.015c-.79.801-2.035 1.202-3.738 1.202zm-1.329-3.483c0 .746.672 1.12 2.014 1.12.941 0 1.647-.166 2.118-.498.484-.346.796-.878.934-1.596v-.25h-2.512c-1.702 0-2.554.409-2.554 1.224zM27.275 12.46h2.699c.263.844 1.142 1.265 2.637 1.265 1.44 0 2.159-.29 2.159-.87 0-.526-.907-.912-2.72-1.161-1.688-.194-2.886-.553-3.592-1.078-.705-.54-1.058-1.34-1.058-2.405 0-1.12.373-1.942 1.12-2.467.748-.54 1.932-.809 3.551-.809 1.675 0 2.92.29 3.737.871.83.567 1.322 1.486 1.474 2.757h-2.699a1.583 1.583 0 0 0-.83-.953c-.388-.208-.962-.311-1.724-.311-1.315 0-1.972.27-1.972.808 0 .498.83.857 2.491 1.078 1.828.263 3.094.643 3.8 1.14.706.484 1.059 1.251 1.059 2.302 0 1.16-.395 2.031-1.184 2.612-.775.567-2.007.85-3.695.85-1.661 0-2.914-.29-3.758-.87-.844-.581-1.343-1.5-1.495-2.758zM44.29 16.089c-1.895 0-3.273-.435-4.13-1.306-.845-.885-1.267-2.308-1.267-4.27 0-1.95.429-3.366 1.287-4.25.858-.885 2.228-1.328 4.11-1.328 1.717 0 3.004.353 3.862 1.058.858.69 1.364 1.803 1.516 3.337h-2.699c-.152-.65-.436-1.12-.851-1.41-.416-.29-1.004-.435-1.765-.435-.955 0-1.654.242-2.097.726-.429.47-.644 1.237-.644 2.301 0 1.05.215 1.817.644 2.301.443.484 1.142.726 2.097.726 1.467 0 2.34-.615 2.616-1.845h2.699c-.152 1.534-.657 2.653-1.516 3.358-.858.691-2.145 1.037-3.861 1.037zM55.25 16.089c-1.398 0-2.43-.263-3.094-.788-.65-.539-.976-1.396-.976-2.57 0-1.203.36-2.06 1.08-2.571.72-.526 1.882-.788 3.488-.788h3.239c-.056-.733-.284-1.258-.685-1.576-.388-.332-.997-.497-1.827-.497-1.343 0-2.132.476-2.367 1.43h-2.7c.167-1.327.658-2.287 1.475-2.882.816-.608 2.048-.912 3.695-.912 1.8 0 3.108.373 3.924 1.12.817.732 1.225 1.92 1.225 3.566v6.281h-2.74v-1.015c-.79.801-2.035 1.202-3.737 1.202zm-1.33-3.483c0 .746.672 1.12 2.015 1.12.941 0 1.647-.166 2.117-.498.485-.346.796-.878.935-1.596v-.25h-2.512c-1.703 0-2.554.409-2.554 1.224zM64.105 15.902V.354h2.74v15.548h-2.74zM73.92 1.39h3.093l4.983 11.444L86.958 1.39h3.114l-6.436 14.512h-3.28L73.918 1.39zM91.68 14.762c-.873-.885-1.309-2.301-1.309-4.25 0-1.949.436-3.365 1.308-4.25.872-.884 2.284-1.327 4.236-1.327 1.937 0 3.335.443 4.193 1.327.872.885 1.308 2.301 1.308 4.25 0 .194-.013.484-.041.87h-8.201c.18 1.563 1.1 2.344 2.761 2.344 1.246 0 2.07-.422 2.471-1.265h2.824c-.277 1.34-.865 2.28-1.765 2.82-.9.538-2.083.808-3.55.808-1.952 0-3.364-.442-4.236-1.327zM95.934 7.3c-.775 0-1.39.159-1.847.476-.457.318-.748.844-.872 1.576h5.44c-.125-.732-.416-1.258-.873-1.576-.443-.317-1.059-.476-1.848-.476zM106.078 15.902h-2.74V5.122h2.74V6.2c.72-.843 1.883-1.265 3.488-1.265 1.523 0 2.63.387 3.322 1.161.706.774 1.059 2.018 1.059 3.732v6.074h-2.741V9.828c0-.816-.2-1.41-.602-1.783-.387-.373-1.003-.56-1.847-.56-.956 0-1.641.242-2.056.726-.415.47-.623 1.237-.623 2.301v5.39zM119.863 5.122h2.948v2.55h-2.948v4.146c0 .54.125.933.374 1.182.249.235.664.352 1.245.352h1.516v2.55h-1.599c-1.494 0-2.581-.297-3.259-.891-.678-.595-1.017-1.548-1.017-2.861V7.672h-1.578v-2.55h1.578V2.779h2.74v2.343z" fill="#495E4C"/><path d="M3.572 31.658h2.934v1.696H3.572v7.887H1.763v-7.887H.065v-1.696h1.698v-.331c0-1.376.302-2.378.905-3.004.602-.627 1.568-.94 2.897-.94h1.052v1.695h-.96c-.726 0-1.255.179-1.587.535-.332.356-.498.928-.498 1.714v.331zM11.68 41.241H9.872v-9.583h1.808v1.235c.628-.921 1.723-1.382 3.285-1.382h.83v1.695h-1.347c-.984 0-1.691.258-2.122.774-.43.504-.646 1.327-.646 2.47v4.791zM19.527 40.21c-.763-.787-1.144-2.04-1.144-3.76 0-1.72.381-2.973 1.144-3.76.775-.786 2.024-1.179 3.746-1.179 1.71 0 2.94.393 3.691 1.18.763.786 1.145 2.039 1.145 3.759 0 .061-.007.153-.019.276v.277h-7.862c.062.958.339 1.664.83 2.119.505.454 1.25.682 2.234.682 1.44 0 2.356-.492 2.75-1.475h1.882c-.258 1.13-.787 1.923-1.587 2.378-.788.454-1.809.681-3.064.681-1.722 0-2.97-.393-3.746-1.179zm3.765-7.114c-.923 0-1.637.203-2.141.608-.492.393-.787 1.038-.886 1.935H26.3c-.099-.91-.394-1.56-.886-1.954-.48-.393-1.187-.59-2.122-.59zM31.285 38.33h1.79c.16.515.468.89.923 1.124.455.233 1.101.35 1.938.35 1.636 0 2.454-.393 2.454-1.18 0-.356-.221-.639-.664-.847-.443-.21-1.157-.387-2.14-.535-1.514-.196-2.584-.516-3.212-.958-.615-.455-.923-1.118-.923-1.99 0-.934.326-1.628.978-2.083.653-.467 1.68-.7 3.082-.7 1.403 0 2.461.246 3.175.737.713.48 1.156 1.253 1.328 2.322h-1.79c-.16-.516-.455-.89-.885-1.124-.431-.233-1.052-.35-1.864-.35-1.514 0-2.27.375-2.27 1.124 0 .344.215.62.645.83.431.196 1.114.368 2.049.515 1.587.246 2.688.578 3.303.995.628.418.942 1.057.942 1.917 0 1.941-1.421 2.912-4.263 2.912-1.415 0-2.492-.246-3.23-.738-.738-.491-1.194-1.265-1.366-2.322zM43.84 27.42h1.808v5.528c.664-.958 1.827-1.437 3.488-1.437 1.39 0 2.405.338 3.045 1.014.64.675.96 1.75.96 3.224v5.492h-1.79V35.75c0-.884-.222-1.529-.665-1.934-.443-.406-1.132-.609-2.067-.609-1.045 0-1.802.258-2.27.774-.467.504-.7 1.327-.7 2.47v4.791h-1.81V27.42zM67.145 41.389c-1.28 0-2.214-.228-2.805-.682-.59-.455-.886-1.186-.886-2.193 0-1.045.326-1.788.978-2.23.665-.455 1.729-.682 3.193-.682h3.267c0-.872-.222-1.505-.665-1.898-.443-.406-1.15-.608-2.122-.608-.775 0-1.372.129-1.79.387-.418.245-.701.645-.85 1.198h-1.79c.173-1.106.616-1.91 1.33-2.414.713-.504 1.771-.756 3.174-.756 1.575 0 2.719.326 3.432.977.726.639 1.09 1.664 1.09 3.077v5.676h-1.81v-1.235c-.725.922-1.974 1.383-3.746 1.383zm-1.882-2.949c0 .48.184.83.553 1.05.382.21.966.314 1.754.314 1.046 0 1.827-.19 2.344-.572.528-.38.855-.989.978-1.824v-.442h-2.805c-1.883 0-2.824.491-2.824 1.474zM76.87 41.241v-9.583h1.809v9.583H76.87zm-.018-11.444c-.185-.184-.277-.491-.277-.921 0-.43.092-.737.277-.922.184-.184.492-.276.922-.276.431 0 .739.092.923.276.185.185.277.492.277.922 0 .43-.092.737-.277.921-.184.184-.492.277-.923.277-.43 0-.738-.093-.922-.277zM84.697 41.241h-1.809v-9.583h1.809v1.235c.627-.921 1.722-1.382 3.285-1.382h.83v1.695h-1.347c-.984 0-1.692.258-2.122.774-.431.504-.646 1.327-.646 2.47v4.791z" fill="#78C081"/></svg>