<svg id="Слой_1" data-name="Слой 1" xmlns="http://www.w3.org/2000/svg" xmlns:xlink="http://www.w3.org/1999/xlink" viewBox="0 0 1486.59 235.97"><defs><style>.cls-1{fill:none;}.cls-2{opacity:0.3;}.cls-3{fill:#fff;fill-rule:evenodd;}.cls-4{clip-path:url(#clip-path);}.cls-5{fill:#edffef;}</style><clipPath id="clip-path" transform="translate(0 0)"><rect class="cls-1" x="1277.56" width="209" height="236"/></clipPath></defs><title>fan-and-wind</title><g class="cls-2"><path class="cls-3" d="M518.9,209.91S303.29,201.23,71,144.81Z" transform="translate(0 0)"/><path class="cls-3" d="M1099.2,158.39s-220.74,27.58-365,17.05Z" transform="translate(0 0)"/><path class="cls-3" d="M658.22,170.78s-222.36,6.23-365-18.12Z" transform="translate(0 0)"/><path class="cls-3" d="M1289,98.56s-220.74,27.57-365,17Z" transform="translate(0 0)"/><path class="cls-3" d="M1051,128.68s-181.75,27-366.43,14.58S164,24.63,164,24.63s287.45,93.36,521.85,111S1051,128.68,1051,128.68Z" transform="translate(0 0)"/><path class="cls-3" d="M1242.77,167s-187.54,20.42-417.24,20.2l193.82-2.31S879.12,198.79,768,196.05c0,0,292-.38,468.31-12.72Z" transform="translate(0 0)"/><path class="cls-3" d="M535,82.71s301.46-11.16,421.62,9Z" transform="translate(0 0)"/><path class="cls-3" d="M0,54.76s301.46-11.17,421.62,9Z" transform="translate(0 0)"/><path class="cls-3" d="M402.8,21.75S694.34,1.18,883,29.67Z" transform="translate(0 0)"/><path class="cls-3" d="M683.46,63.45s240.88-36.12,482.18,4.86Z" transform="translate(0 0)"/></g><g class="cls-4"><path class="cls-5" d="M1360,198.26a2.57,2.57,0,0,1-.41-.26l-2.85-.18a9.45,9.45,0,0,1-.48-1c-.39,11.31.67,37.33-16.94,36.44.16.83.34,1.67.46,2.5,17.87-2.41,21.43-23.08,21.33-37.68a1.44,1.44,0,0,1-1.11.18Z" transform="translate(0 0)"/><path class="cls-5" d="M1337,38.83l.44.66Z" transform="translate(0 0)"/><path class="cls-5" d="M1295.06,213.78c-.3-.58-.57-1.17-.82-1.78-.92-1.79-1.94-3.85-2.83-6.09a21.94,21.94,0,0,0,4.15,8.92A6.73,6.73,0,0,1,1295.06,213.78Z" transform="translate(0 0)"/><path class="cls-5" d="M1396.56,86.48l-.07.23.1-.22Z" transform="translate(0 0)"/><path class="cls-5" d="M1310.85,226.38" transform="translate(0 0)"/><path class="cls-5" d="M1369,2.55c-.23.42-.53.83-.76,1.24a26.08,26.08,0,0,1,6.07,2.73,42.29,42.29,0,0,0-6.41-2.14c-1.11,1.91-6.15,1.42-5.61-1-17.55-2.3-55.74,2-58.91,24.46-.33-1.94,6-19,6.79-18-1.25-1.59-5.17,3.73-5.55,4.68.23-.1.46-.21.7-.3-.24.09-.47.2-.7.3-2.31,5.48-2.53,10.82-1.82,16.64.12,1,3.07,12.81,3.43,12.28,5.8,12.33,18.79,24.14,30.08,33.81V77c1.42-.08,2.23.89,3.2,1.56a1.7,1.7,0,0,1,2,0c.47,1-2,1-2.28.68h-.52c4.89,4.14,12.68,8.94,15.75,14.68,2.43,4.53,1.08,9.28,4.75,13.52a15.19,15.19,0,0,0-7.61,7.32l1.86.9,1.11,1.9c-1,.18-1.67.69-1.64,1.71,2.62,3.18-4.9,7.24-6.29-.2-11.39.75-24,4-33,11.35,1.94.62-.64,1.11-1.16,1.06-1.57,1.45-4.39,3.7-5.28,4.81a40.65,40.65,0,0,1,4.51-5.29c-.16-.41.12-.67.86-.78,9.82-9.22,21.13-11.22,34-11.22a8.21,8.21,0,0,0-1.37-3.25,52.06,52.06,0,0,0-20,4.06,2.32,2.32,0,0,1-.06,1.38c-.53,1.56-1.59-.25-1.72-.63-16.23,7.23-30.78,22-38.36,40.44.8-.28,1.6-.46,2.23-.66,3.34,1-1.19,3.84-3.07,2.79-.55,1.5-1.07,3-1.55,4.55.2-.19.5.1.62.28a1,1,0,0,1-.72,0c-1.81,6.07-3.13,12.63-2.7,19-.52-2.28.08-24.75,1.36-24.17-4.07-1.93-3.66,17.56-3.66,17.33,1.54,12.84,7.38,25.65,16.87,34.44-14.47-13.75-14.65-40.92-3.54-56.72-5.94,8.49-7.67,24.57-5.14,35.12-.1-6.65,1.07-15.65,4-21.66-2,4-1.86,12.95-2.17,17.93a2,2,0,0,1,1.93-.43,88.78,88.78,0,0,1,5.83-21.29c-2.27,5.11-4,15.56-4.52,21.76,1.22.83,1.13,1.73-.25,2.71a44.27,44.27,0,0,0,.84,13.87c.9,2.24,1.9,4.3,2.83,6.1-4.08-10-2-23.69,2.3-33.16-2.94,6.53-4.19,26.63-1.72,34.28.46.87.88,1.66,1.24,2.38a4.6,4.6,0,0,1-.49-.67,22.48,22.48,0,0,1-4.17-8.93,31.5,31.5,0,0,1-2.65-13.36,2.27,2.27,0,0,1-1.12-.67c.48,10.75,1.46,18.72,10.65,26-8.17-11.29-1.42-34.12,4-45.47-4.9,10.34-11.08,40.26-.13,48.94-5.16-10.08-4.1-26,1.11-36,.07-.15.15-.29.23-.44l-.23.44c-4,8-4.13,26.82-1.22,35.35,1.74,1.23,3.51,2.38,5.28,3.45-8.46-9.06-4.09-32.18-.15-42.83,0-.15.11-.29.16-.42l-.16.42c-3.28,9.12-6.45,39.34,3.42,44.91-6.94-9.08-4.44-25.49-1.2-35.68-2.45,7.69-3.44,28.28,1.45,35.81.19,0,3.67,1.32,1.62.72.91.48,1.81.94,2.7,1.39a10.66,10.66,0,0,1-2-3.74c-.83.45-1.39-1.24-.42-1.62a82.68,82.68,0,0,1,1.08-38.4l.15-.56-.15.56c-2.58,9.43-3.76,36,2,44.07,6.41,3.15,14.3,7.33,21.64,7.21a4.2,4.2,0,0,1,.35-2.81c-1.07-.13-8.63-1.61-8.21-2.69.13-.37,6.9,1.06,8,1.14-8-7.24-7.55-26.72-3.11-36-3.23,6.93-2.59,30,3.23,36q1.35.09,2.67.06a76.37,76.37,0,0,1,1.77-35.83c-.22.66.21,4.24,0,5.7a8.44,8.44,0,0,1,3,.36c1.39-4.08,1.17-12.86.69-16.47a80,80,0,0,1,.84,17.21,6.13,6.13,0,0,1,1.94,2.17c.77-2.82.81-5.91,1.67-8.69a1.47,1.47,0,0,1,.14-.45c0,.15-.1.3-.14.45-1.33,4.4-1.11,12.31-2.22,17.38-1.42,6.44-4.37,11.57-7,17.55,3.61-8.2,5-17.5,7.5-26.06a4,4,0,0,0-2-.24c0,5.26-2,10.84-3.08,16,1-4.93.48-10.47,1.15-15.53-1-.47-1.77-2.49-2.54-3.36-1.33,9.08-2.91,20.79-1.67,29.86,7.09-.18,12.59-9.67,13.57-15.8a1.82,1.82,0,0,1-2-1c-.2-.83,1.84-.52,2.15-.46a175.16,175.16,0,0,0,.78-27.29c-.54.24-1.06.52-1.61.73.56-.21,1.07-.49,1.61-.73-1.14-14.16,1.62-32.8-7-45a4.75,4.75,0,0,0-2.06.86,4,4,0,0,0,1.85,3.26,3.93,3.93,0,0,1-1.85-3.26l-4.68.83A5.13,5.13,0,0,0,1341,146a5.47,5.47,0,0,0,.7,2.07,19.86,19.86,0,0,0,5.61-1.84c-6.15,2.79-16.31,8.34-19.84,13.48a35.74,35.74,0,0,1,9.72-9.66c-.32-.05-.65-.09-1-.12l-1.14-2.38,3-2.4c-4.87,2.88-12,5.75-15.34,9.74,4.17-5.08,9.23-9.33,15.68-11,0-1.06-.42-5.42,1.08-4.76a3.26,3.26,0,0,1,1.49,3.33c4,.57,3.85-2.92,7-3.7a14.46,14.46,0,0,1,2.28,1.84l-1.21,1.31a23.38,23.38,0,0,1,2.88,5.26c.15-.69,2.74-11,5.13-7.43-1.63-2.42-5,13.28-3.81,12.32,2.69,13.66,3.33,29.86,2.86,43.83a5,5,0,0,1,4.72-1.58c-.39-10.09-1.94-20.46-3.18-29.23-.43.11-.87.26-1.31.4a8.3,8.3,0,0,1-.54-4.54,8.08,8.08,0,0,0,1.5,1.59c-.64-4.58-2.36-11.11-1.13-15.74.9-3.37,3.55-4.68,4.68-7.92-1.86-.68-10.64-6.07-9.06-9.19a14.64,14.64,0,0,1-.7-2.83,15.62,15.62,0,0,0,1.23,2.41c.64-.2,7.68,5.79,10.19,6.06a16,16,0,0,0,13.67-5.9c7.55-9.7-.09-14.36-4.42-21.76a14.84,14.84,0,0,0-4.41-1.35,15.46,15.46,0,0,1,14.31,5.92,47.74,47.74,0,0,0,9.53-9.93,8.09,8.09,0,0,0-1.9.72l.06-2a76,76,0,0,1-8.24,5.77c6.62-3.62,12.38-13.26,15.22-20.06l.07-.24a.62.62,0,0,1-.32-.3.6.6,0,0,1,.23-.78.65.65,0,0,1,.43-.09,31.82,31.82,0,0,1,2-5.26,41,41,0,0,0-1.84,5.3h-.14c-.11.38-.23.77-.34,1.17h0l-.1.22c-1.27,4.43-2.49,9.2-5.76,13.15a5.4,5.4,0,0,1,1.22,1.63C1411.39,73.41,1406.26,14.85,1369,2.55Zm-76.68,162.5c-1.08,1.27-2.16,1.52-3.22.76-.37-1.38.48-2.13,2.54-2.28a1.14,1.14,0,0,1,.71,1.45Zm59.34,21.82c-.16,3.6,1.88,9.3,1.38,14-.56,5.15-2.74,9.19-4,14.13,1.06-4.14,1.2-8.61,2-12.83C1352.12,196.83,1351.43,192.16,1351.67,186.87Zm-41.43-52.06c3.47-1,3.59-1,4.72,1,9.4-9.31,21.27-10.26,33.56-11.71-10.77,1.29-24.86,5.08-33.09,12.51l.79,1.24c-.78.67-1.39.11-1.85-.25-1.33,1.2-4,3.42-4.67,4.28a40.23,40.23,0,0,1,3.94-4.88A9.79,9.79,0,0,0,1310.24,134.81Zm39.19-4.37c-13.14.65-30.14,7.08-37.94,17.31C1321.56,134.51,1333.56,131.27,1349.43,130.44Zm-38.61,50.1c-.07,1.06-.15,2.12-.23,3.19h-2.3c.13-1.15.26-2.3.4-3.45l-4.13-.28c-.28-4,2.92-3.21,6-3.21,2.13-.62,2.13-.62,3.61,1.11a3.8,3.8,0,0,1-3.35,2.64Zm4.52-23.84c-.79-1.18,2.32-.4.84.31a.9.9,0,0,1-.46,0,.87.87,0,0,1-.38-.31Zm22,61.2a2,2,0,0,1,.12.34,1.89,1.89,0,0,0-.09-.34Zm.1-.14v.14l-.07-.06a.23.23,0,0,1,.12-.08l.19-.56c.48.4.06.44-.19.55Zm1.12-63.46c.24-.94,1.65-2.29,2.59-1.3S1339.41,154.73,1338.56,154.3Zm-5.59,5.79c.21-.27.79-.29,1-.36.53.09,4.29.07,3.77,1.46,3.45-2.12,8.51-6.57,11.53-9.38-4.44,4.19-8.71,9.77-13.71,13.43a29.75,29.75,0,0,1,1.77-3.58c-.67.4-6.22.74-4.34-1.57Zm-6.35,29a5.28,5.28,0,0,1,4,.18,21.12,21.12,0,0,1,.54-2.22,8.45,8.45,0,0,1,.09,2.46,10.87,10.87,0,0,0,3.4.88c1.64-1.64,2-2.15,4.11-.6a16.75,16.75,0,0,1,.2-3.24c.14-.66.42,3.55.42,3.64l.8.2a4.78,4.78,0,0,0,.08,1.06l-.78.05c.06.94-.06,1.87,0,2.81.63.18,1.25.37,1.89.51-.64-.14-1.26-.33-1.89-.51.32,10.34-1.57,21.2-.23,31.44a169.64,169.64,0,0,1-1.11-26.85,1.53,1.53,0,0,1-.58.55c0-.52-.11-1-.16-1.57a1.42,1.42,0,0,1,.75.59c.08-2.24.21-4.67.5-6.9l-1.89.15-.39.44a18.54,18.54,0,0,1-5.28-.73h0c-.22,11.11-2.75,22.94.21,33.9-3.09-11.39-3.84-22.35-1-34-1.8-.33-5.91-1.46-3.66-2.28Zm-3,15.08a41.52,41.52,0,0,1,1.51-8.27v-.14c.06-.2.12-.39.19-.57-.07.19-.13.38-.19.57v.14a50.47,50.47,0,0,0-1.51,8.28c-.92,10.16.73,23.24,7.18,28.34-9.12-7.06-8.63-15.46-7.48-26a19.36,19.36,0,0,0,.34-2.39Zm-.59-19.39a117.52,117.52,0,0,0-1.88,24.34c.51.38,1,.79,1.5,1.14l-.9,1.32-.42.11c.56,6.28-1.63,16.15,6,18.81-7.5-2.24-8-13.37-7.91-19.91l-.53-.41-1.62.34c.06,3.35.52,6.6.8,9.93,1.39-.21,1.73.86.14,1.19.88,3.93,3.57,6.68,5.43,10.1-3.45-6.08-7.46-8.78-8-16.32a69.78,69.78,0,0,1,1.86-21.21c-1,3.57-.35,11.92-.23,16.31l1.62-.35c.2-.26.37-.47.53-.65-.12-8.35,2.38-17.36,3.65-24.75Zm29.2-50.82-1,.11c-13.1,1.63-22.11,10.74-31.77,18.56,10.57-8.54,15.45-16.42,31-18.49l.82-.07ZM1375.83,7.2a2.37,2.37,0,0,1,.35.19l-.45-.23Zm6.83,24.22C1379.35,23.15,1368,9,1359.81,4.22c10.55,6.18,18.21,15.6,22.85,27.19ZM1363.22,7.59l-.08.06Zm3.79,8.73c.46-.11.81.27,1.07.68,1.74.22,2.4,1.25,2,3.1,6.33,7.28,9,15.76,13.55,24-4.33-7.9-9.65-15.65-14.56-23.21-.7.28-4.15.71-4.57-.29a3.37,3.37,0,0,1,2.39-2.75c-1.32-3.26-7-9-10.16-9.5C1361.88,9,1363.78,13.1,1367,16.32Zm12.25,72.73a84,84,0,0,0-1.78-25.4c.81,3.91,4,8.62,4.22,13.81.26,5.41-1.5,9.61-2.54,14.83C1379.48,90.61,1379.15,90.74,1379.26,89.05Zm-2.6-45.49c-2,1.17-3-3.11-1.06-4.07C1377.73,40.6,1378.09,42,1376.66,43.56Zm-.28,17c-.61.31-1.55-2-.48-2.55C1376.9,58.17,1377.64,60,1376.38,60.56Zm4.66.62v.2l.09.3v0a6,6,0,0,0,1.43,2.28l.09.09.06.66-.06-.66-.09-.09a6,6,0,0,1-1.43-2.28,0,0,0,0,0,0,0l-.09-.3V61a7.34,7.34,0,0,1,0-2.56,7.34,7.34,0,0,0,0,2.56v.16ZM1382.81,90h0c-.55,1.27-1.31,1.65-2.26,1.15,0-1.07.77-1.45,2.23-1.16Zm-8.55,3.36c.09-.87,0-2,.07-2.91v-.73c-.25-8.63-3.82-20.41-8.54-25.65,6.91,7.7,9.13,15.68,8.54,25.65a26.33,26.33,0,0,1-.11,3.66ZM1363.69,77c-2.37-4.43-6.69-10.11-10.55-12.52,10.59,6.62,15.33,15.85,17.24,27.88C1369.63,87.23,1366.19,81.53,1363.69,77Zm.52,15.17c-6.32-10.25-14-17.83-23.1-25.37,4.06,3.34,10.24,5.76,14.45,10.68,3.78,4.52,5.63,9.72,8.65,14.7Zm5-40.44a1.23,1.23,0,0,1-1.6-.71l0-.15c.06-1.33,4.12-.63,3.84.4a2,2,0,0,1-1,.54,2,2,0,0,1-1.15-.08Zm.66,10.85-.33.1.06-.32Zm-1-3.35c-.28,1.86-2.82.49-2.64-1,.24-1.92,2.62.2,2.66,1Zm3.49.88.06-.33.28.22Zm-3.5-35.27-.3,0,.24-.25Zm.9,6.16c-3-7.5-14.16-20.71-21.7-24.88A48.06,48.06,0,0,1,1369.76,31Zm-32.2-23.46c3,1.46,5.07,2.08,7.7,4.25.37-.61.8-.83,1.29-.64-.53-.39-3.22-2.87-3.33-2.93a54.14,54.14,0,0,1,22.34,28.66c0-2.68,5.67-1.13,5.26,1.47-1.17.6-4.19.14-5.12-1a62.42,62.42,0,0,0,3.16,8.15c-5.3-11.89-11.94-25.16-21.78-33.9a11.93,11.93,0,0,1,.48,2.21c4.32,3.78,8.87,12.58,10.79,18-1.67-4.68-8.42-12.32-12.13-16.54-1.62.52-3,.16-4.3,1.92,6.71,8.34,10.82,15.6,16.19,24.81,1.25-.72,3.66-.59,3.57,1.52-.48.77-3.61,3.94-4.77,2.33-.91-1.45-.56-2.7,1-3.77-5.94-7.75-9.72-17-16.56-24.1l-.18.33.54,2.48c-2.28-.58-2.28-.58-1.85-2.63-.2-.74-.6-1.48-.72-2.21a69.21,69.21,0,0,0-5.86-4.66,39.24,39.24,0,0,1,5.94,3.56,2.5,2.5,0,0,1,.64-.93c1.59.36,3.13-.17,4.69-.21.07-.14.14-.28.2-.43A19.62,19.62,0,0,0,1337.56,7.54Zm-2.8,8.63-.3-.1.24-.15ZM1347.91,36c-2.35-7.22-14.14-18.79-20.48-23.6C1335.76,18.66,1344.4,25.41,1347.91,36Zm-8.66-4.6a4.22,4.22,0,0,1,.65-.3c.25.78.37,1.21.19,1.46a31.55,31.55,0,0,1,5.52,10.9,6.65,6.65,0,0,1,4.06,3c-1,2.09-2.44-.68-3.41-1,.87,1.64,1.66,3.33,2.51,5-.91-1.91-2.28-3.46-3.21-5.21-.26,0-3.13,1.64-3.86.75s2.06-3.1,2.83-2.84a9.75,9.75,0,0,0-.63-1.25h-.13a3.38,3.38,0,0,1-1-.07c-2.39.06-4.67,1.58-4.76-2.06a3.41,3.41,0,0,1,3.73,1.66,3.66,3.66,0,0,0,1,.42,4.77,4.77,0,0,1,1,.08h.12c-1.76-3.07-3.76-6.06-5.72-9H1338l.06-.12c-3.76-5.68-8.33-13-13-17.1a80.36,80.36,0,0,1,14.19,15.67ZM1337,37.79l1,1.28Zm0,1,.43.66-.43-.66A150.38,150.38,0,0,0,1318.76,17l-1.2-1c.39.33.79.7,1.2,1.08A113.2,113.2,0,0,1,1337,38.88Zm-4.77,3.83c2.63,4.13,5.25,8.2,7.88,12-2.8-3.94-5.36-7.95-7.88-12-5-7.79-10-15.75-15.31-22,6,7,10.58,14.49,15.32,22Zm-13.15-4.36a6.32,6.32,0,0,0,1,1.77l-.7,1c3.22,6.35,10.28,15.24,16.52,19.1.22.14.44.28.67.4-.22-.12-.45-.26-.67-.4-9.77-5.88-17.37-15.76-22-26.33.38.87,3.62,4.2,4.62,5.6a5.76,5.76,0,0,1,.6-.94Zm43.78,86.57c-1.67.52-1.74-1-1.67-2H1361C1361.92,117.07,1367.72,123.34,1362.89,124.83Zm1.56-21.18c-.4-.86-.39-.63.32-1C1365.27,103.17,1365.17,103.5,1364.45,103.65Zm3.11,19.76c.54.56.42.91-.35,1.07C1366.72,123.92,1366.84,123.57,1367.56,123.41Zm1.94-20a.42.42,0,0,1-.16-.11.54.54,0,0,1-.1-.16c.42-.41.74-.41,1,0a4.08,4.08,0,0,1-.69.26ZM1360,94.84c.39,1.44,1.69,11,1.61,11.15-1.39,0-2.26-.79-2.62-2.43-1-3.29.79-6.55-.75-9.82a5.44,5.44,0,0,1-2-3.12c-8.21-11.21-26.28-21.72-38.3-34.35-1.06.16-1.13.09-.81-.87-8.06-8.75-13.1-18.52-10-30.25h-.69c-1-1.81,0-2.93,1.89-3.37a8.8,8.8,0,0,1,2.42-3.5,11.23,11.23,0,0,1-1.08,3.35c.83,0,1.67.05,2.48,0-.17-.85-.44-1.73-.66-2.59a8.3,8.3,0,0,0,1.14,2.56,1,1,0,0,0,.35,0c.08-1.77,2.85-1.7,2.81.44a1.76,1.76,0,0,1-2.25,1.07,3,3,0,0,1-.36-.18c2.88,8.24,8.5,13.69,13,20.8-4.45-7.18-11.7-10.63-13.52-20.73l-1.57,2.11a1.17,1.17,0,0,1-1.32.3c2.34,6.19,3.3,20.44,9.55,24-7.77-4.41-9.49-16.47-9.93-24.14h-.62c-4.4,21.47,18.39,38.16,33.07,50.26.72-1,1.27-1.09,1.63-.12a1,1,0,0,1-.4.48,1,1,0,0,1-.59.17c7.78,6.23,14.07,16.84,24.07,20.09,1.76.58,13,1.37,12.92,1.92-.16,3-18.11-2.39-19.45-3.28Zm17.33,11.67a38.37,38.37,0,0,0,9-11.63l-3.11.35c-1.35,2.41-2.47,4.88-3.61,7.4,5.4-12,9-26.68,7.54-39.84a10.67,10.67,0,0,1-1.49-.2v.06h-.06c0,1.07-.74,1.57-1.86,1.69a16.55,16.55,0,0,1,1.17-5.24.62.62,0,0,0,0-.27.58.58,0,0,0-.09-.25c2-1.58,2-1.58,4.36-.22l2-.09,1,1.74h-2.42a29.85,29.85,0,0,0,1.24,4.37l-2.4-.93a1.74,1.74,0,0,0-.76-.55c1.94,10.39.64,23-4.57,32.27l3.11-.35c4.25-9.28,8.3-19.95,8.55-29.68-.43,16.86-4.33,30.16-17.56,41.32Zm14.8-53.13a4.7,4.7,0,0,0-.1-.74,6.26,6.26,0,0,0,.1.74c.07.75.11,1.5.11,2.26l-.21.52.21-.52A15.35,15.35,0,0,0,1392.09,53.38Zm-.63,26.37a1.53,1.53,0,0,1-1.78,1.23l-.22-.06c-.84-1.37-.24-2.37,1.78-3,.06.6.11,1.19.16,1.79Zm-1.39-42c-2.93-.09-6,1.08-8.93,1.34l.07-.1c-.42-7.73,5-3.32,8.37-2.26-5.12-10-9-21.4-17.31-28.48l-.83-.69c.28.22.56.45.83.69,12.78,10.62,16,24.17,22.42,39-1.32-3.25-3.13-6.25-4.58-9.52Z" transform="translate(0 0)"/><path class="cls-5" d="M1398.83,80.06a31.92,31.92,0,0,0-2,5.27.33.33,0,0,1,.14,0A40.67,40.67,0,0,1,1398.83,80.06Z" transform="translate(0 0)"/><path class="cls-5" d="M1295.06,213.78a7.9,7.9,0,0,0,.5,1.06c.07.07.13.15.2.23C1295.56,214.65,1295.29,214.22,1295.06,213.78Z" transform="translate(0 0)"/><path class="cls-5" d="M1307.17,181.33l.16-.42C1307.27,181.05,1307.22,181.19,1307.17,181.33Z" transform="translate(0 0)"/><path class="cls-5" d="M1303.25,185.36l.23-.44C1303.4,185.06,1303.32,185.21,1303.25,185.36Z" transform="translate(0 0)"/><path class="cls-5" d="M1313.79,184.72c0-.18.1-.37.16-.56C1313.89,184.35,1313.84,184.53,1313.79,184.72Z" transform="translate(0 0)"/><path class="cls-5" d="M1295.77,215.07c-.07-.07-.13-.16-.19-.23a4.6,4.6,0,0,0,.49.67c-.36-.71-.78-1.51-1.24-2.38l.24.65C1295.29,214.22,1295.56,214.65,1295.77,215.07Z" transform="translate(0 0)"/><path class="cls-5" d="M1294.83,213.13c-.18-.37-.37-.75-.58-1.13.25.61.52,1.2.82,1.78C1295,213.57,1294.91,213.36,1294.83,213.13Z" transform="translate(0 0)"/><path class="cls-5" d="M1350.28,196.16a1.56,1.56,0,0,1,.14-.45C1350.37,195.86,1350.32,196,1350.28,196.16Z" transform="translate(0 0)"/><path class="cls-5" d="M1372.31,8.23c-.27-.24-.55-.47-.83-.69C1371.76,7.76,1372,8,1372.31,8.23Z" transform="translate(0 0)"/><path class="cls-5" d="M1325.22,195.71c.06-.2.12-.39.19-.58C1325.34,195.32,1325.28,195.51,1325.22,195.71Z" transform="translate(0 0)"/><path class="cls-5" d="M1336,60.13c.22.14.45.28.67.4Z" transform="translate(0 0)"/><path class="cls-5" d="M1323.66,204.13a49.46,49.46,0,0,1,1.52-8.28A40.8,40.8,0,0,0,1323.66,204.13Z" transform="translate(0 0)"/><path class="cls-5" d="M1332.27,42.62c2.53,4,5.08,8,7.88,12C1337.56,50.82,1334.89,46.75,1332.27,42.62Z" transform="translate(0 0)"/><path class="cls-5" d="M1318.76,17c-.41-.36-.81-.69-1.2-1Z" transform="translate(0 0)"/><path class="cls-5" d="M1351.28,134l1-.11Z" transform="translate(0 0)"/><path class="cls-5" d="M1342.74,41.83a3.38,3.38,0,0,0,1,.08A4.77,4.77,0,0,0,1342.74,41.83Z" transform="translate(0 0)"/><path class="cls-5" d="M1381.18,61.78a6,6,0,0,0,1.43,2.28A6,6,0,0,1,1381.18,61.78Z" transform="translate(0 0)"/><path class="cls-5" d="M1392.13,53.31a2.06,2.06,0,0,0-.09-.73C1392.08,52.83,1392.11,53.07,1392.13,53.31Z" transform="translate(0 0)"/><path class="cls-5" d="M1392.26,55.58l-.21.52C1392.11,55.93,1392.18,55.75,1392.26,55.58Z" transform="translate(0 0)"/><path class="cls-5" d="M1374.26,93.38a26,26,0,0,0,.11-3.64v.73C1374.26,91.35,1374.35,92.51,1374.26,93.38Z" transform="translate(0 0)"/><path class="cls-5" d="M1381.08,61.43l.09.3C1381.15,61.63,1381.11,61.53,1381.08,61.43Z" transform="translate(0 0)"/><path class="cls-5" d="M1317.23,55.18l0,.17c.27.29.53.58.81.87h.21Z" transform="translate(0 0)"/><path class="cls-5" d="M1381,61.07a.49.49,0,0,0,0,.17Z" transform="translate(0 0)"/><path class="cls-5" d="M1330.33,191.37a6.46,6.46,0,0,0,.75.11h0a5.48,5.48,0,0,0-.72-.22Z" transform="translate(0 0)"/><path class="cls-5" d="M1349.88,116.29c.28-.06.54-.12.81-.2-.43-.06-.85-.11-1.28-.15Z" transform="translate(0 0)"/><path class="cls-5" d="M1355,.4c0,1.25,6.62,1.9,7.74,2a6.5,6.5,0,0,1,1.16-1.4h0C1363.07.75,1355-.68,1355,.4Z" transform="translate(0 0)"/><path class="cls-5" d="M1297.44,132.76c-.88.92-11.6,13.38-10.11,14.24.59.35,12.42-14.26,13.36-15.19,5.74-5.68,13.38-11.6,21.24-14.07a3.45,3.45,0,0,1,1-1.3A66.48,66.48,0,0,0,1297.44,132.76Z" transform="translate(0 0)"/><path class="cls-5" d="M1323.33,116.29l.49.83.33-.13c.56-.19,21.64-4.76,21.6-4.27C1346,110.16,1324.56,115.78,1323.33,116.29Z" transform="translate(0 0)"/><path class="cls-5" d="M1418.17,98.35a54,54,0,0,0-5.06,5.42c-1.07,1.29,5.44-3.53,6.78-4.68l-1.65-.57A.87.87,0,0,0,1418.17,98.35Z" transform="translate(0 0)"/><path class="cls-5" d="M1465.08,77.28c-5.41-2.34-12-2.26-17.65-.8-12.65,3.29-20.16,13.52-29.26,21.85a.18.18,0,0,0,.07.17l1.65.58c9-7.7,15.64-18.22,27.71-21.61a25.58,25.58,0,0,1,13.31-.39c1.37.36,16.31,9.93,15.72,10.4C1478,86.36,1466,77.68,1465.08,77.28Zm-10.83-1-.33-.28c.11-.08.22-.22.34-.23q.81.54,0,.51Z" transform="translate(0 0)"/><path class="cls-5" d="M1387.72,132c-1.15.14.41-2.77.79-3.09.36.78-2.52-16.9-4.55-15.79-1.2.66,3.1,11.82,2.62,14.49-.39.6-1.19,2.08-.78,2.77a15.15,15.15,0,0,1-9.35,8.88c-.63.34-5.39,3.29-6.39,2.21.48,1.25,1,2.48,1.62,3.68,9.13-1.87,15.4-8.71,20.14-16.78C1390.87,128.92,1388.62,131.91,1387.72,132Z" transform="translate(0 0)"/><path class="cls-5" d="M1482.11,142.92a.42.42,0,0,0-.16-.09A.42.42,0,0,1,1482.11,142.92Z" transform="translate(0 0)"/><path class="cls-5" d="M1479.81,148.07l1.47-.55Z" transform="translate(0 0)"/><path class="cls-5" d="M1456.56,138c-3.71.56-7.81,1.55-11.54,1.66a77.69,77.69,0,0,0,14-2Z" transform="translate(0 0)"/><path class="cls-5" d="M1451.63,148.66a64.38,64.38,0,0,1-7.45,1.13,47.65,47.65,0,0,0,7-.75A3.66,3.66,0,0,1,1451.63,148.66Z" transform="translate(0 0)"/><path class="cls-5" d="M1473.26,90.9a18.43,18.43,0,0,0-2.78.14C1471.38,91,1472.31,91,1473.26,90.9Z" transform="translate(0 0)"/><path class="cls-5" d="M1403.85,124.11l-.62.32Z" transform="translate(0 0)"/><path class="cls-5" d="M1482,142.83a1.09,1.09,0,0,1,.36.28,1.2,1.2,0,0,1,.22.4C1482.66,143.29,1482.56,143.05,1482,142.83Z" transform="translate(0 0)"/><path class="cls-5" d="M1484,134.11l.7-.29Z" transform="translate(0 0)"/><path class="cls-5" d="M1469.16,84.34c-24.82-14.25-47.74,14.39-63.44,29.84l.1.09a2.8,2.8,0,0,1-.56,1.76l-.6-.84c-6,5.88-10.77,10-13.62,10.07a3.45,3.45,0,0,1-.42,1.94h0c1.36-.64,13.15-9.47,13.48-9.31C1415,106.2,1429,93.68,1443.6,86.66c7.38-3.53,14.16-4.8,21.76-1.83.78.31,13.65,7.92,12,9.11-.49.36-3.69-2.71-4.1-3h0c-1,.09-1.87.13-2.78.14-6.91.66-13.94,3.47-20.63,4.53,2.59-.41,7.38-3.69,11-4.29,3.33-.55,6.4-.21,9.6-.24.93-.09,1.86-.14,2.78-.14h0a35.89,35.89,0,0,0-12.14-6.22c-7.17.83-17.44,4-23.12,8.59a1.6,1.6,0,0,1-.1,2.27,1.49,1.49,0,0,1-.71.38c-1.82-.29-1.53-3.34.17-3,7.88-5.37,14-7.89,23.58-8.31-15.35-4.3-33.15,13.28-43.49,22.44-6.34,5.62-12.52,11.58-17.36,18.58-1.2,1.79-7,16.2-5.31,15.77-4.59,1.25,4.57-17.78,6-19.53a71.12,71.12,0,0,1-6.3,4.75c-.25,8.62-14.54,18.56-22.07,20,8.11,14.84,25,24.68,44.07,27.59A62.36,62.36,0,0,1,1394,169c-.55-.33-19.45-12-18.45-12.82-4.68,3.86,26.14,16.76,25.39,16.57,10.26,2.67,20.5,2.61,31,2.31,10.22-.29,20.34-.64,30-4.59a44.93,44.93,0,0,0,17-11.9c1-1.12,7.71-10.25,6.13-10.88.68.28-14.22,16.17-14.87,16.64-8,5.86-17.11,8.34-26.83,9.37,13.61-2.61,28.37-8.7,35.89-21-6.55,3.49-15.38,6.9-23,7.2,4.87-.21,17.81-5.15,23-7.24C1490.56,134.32,1490,96.26,1469.16,84.34Zm-22.82,89.2.6.43c-1.14.58-1.36-.3-.6-.42Zm36.22-29.67c-.3,3.48-20.11,6.65-23.24,6.85,3.1-.19,9.3-3.88,13.25-4.71.44-.1,9.29-1.27,10-2.5a1.1,1.1,0,0,0-.21-.4,1.13,1.13,0,0,0-.37-.28c.56.22.71.46.58.68A.63.63,0,0,1,1482.56,143.87Zm-28.66,4.67c4,1.27-4.39,2.11-2.78.49a46.19,46.19,0,0,1-6.94.76h0a64.38,64.38,0,0,0,7.45-1.13,3.75,3.75,0,0,0-.51.38c.87-.15,1.77-.32,2.68-.51a4.23,4.23,0,0,0-.51-.13c1.16-.15,2.29-.33,3.41-.53a124.85,124.85,0,0,0,23.64-8.21l1.06-.53-1.06.53a83.6,83.6,0,0,1-23.64,8.21c-1,.24-1.94.46-2.9.66Zm-1.1,7.46c-1.65-.55-1.67-.6-.84-1.91A2.87,2.87,0,0,1,1452.8,156Zm-13.24-49.53a2.43,2.43,0,0,1,2,1.08c.43.27.86.54,1.28.83a3.33,3.33,0,0,1-.35,1.78c11-5.2,22.93-6.88,34-11.4-3.34,1.34-6.36,3-9.81,4.13,0,.06-.08.12-.11.17a2.9,2.9,0,0,1-1.35.43c-3,1.46-6.4,2.06-9.6,2.94-1.39.39-13.7,4.21-13.72,4.15-.72.13-.92-1.12-1-1.55a1.68,1.68,0,0,0,.49-.66,1.74,1.74,0,0,0,.14-.81A18,18,0,0,0,1439.56,106.47Zm.71,46.38-.83,1.19c-2.07-2.36.61-2,.8-1.19ZM1457,112.21a1,1,0,0,1,.66,1.25l-.06.14c-.52,1.07-2-.68-.63-1.39Zm-13.24,2.85-.19.16c0-.07-.12-.15-.11-.21s.11-.11.17-.17Zm-2.83-2c.06-.16,1.84-1.68,1.84-.06a1.39,1.39,0,0,1-.89.36,1.44,1.44,0,0,1-.92-.27l-.42.19Zm20.12,2.66c6-1.78,12.17-2.54,17.91-4.9-11.38,4.71-23.9,9.58-36.36,10.88,4.93-.54,12.87-4.31,18.42-6Zm4.61,8.07a1.11,1.11,0,0,1,1,1.14c5-2.14,10.12-2.49,15-5.15-10.82,5.94-23.46,11.18-36.14,11.61,4.11-.13,12.26-3.49,16.8-5,1.27-.41,2.5-.78,3.73-1.25a1.93,1.93,0,0,1-.42-1.37Zm3-1.42a5.12,5.12,0,0,1,.75-.35h0c-.94,1.66-.6.2-.79.33ZM1445,139.7c3.73-.11,7.83-1.09,11.54-1.67.84-.12,1.66-.25,2.48-.39,8.92-2,18.67-5.21,24.32-8.56-8,4.78-15.4,7.07-24.32,8.56a77.52,77.52,0,0,1-14.06,2Zm10.77,4.84c-1.53-.39-1.71-.93-.52-1.62,1.54.38,1.71.92.48,1.6Zm-3.37-24.17Zm-8.59,13c-.12,0-.28.13-.34.1s-.1-.2-.15-.31c.25-.16.41-.11.45.23Zm15.6,8.11c5.65.13,18.28-4.79,24.58-7.39l.7-.29-.7.29c-7.82,3.28-15.68,7.6-24.62,7.41Zm26.44-16.66c-.52.24-1,.5-1.58.72-7.36,3.3-16,6.32-24.24,5.84,5,.31,18-3.76,23.46-5.54a6.58,6.58,0,0,0,.78-.29c.48-.21,1-.46,1.54-.71Zm-24.79-2.1c.19.06.2.19,0,.38-.1,0-.26-.07-.28-.14s0-.13.09-.21a34.23,34.23,0,0,1-3.65.4c5.31-.3,19.82-5.49,25.2-8.1-6.5,3.09-14,6.44-21.39,7.67Zm19.84-17.57a4.64,4.64,0,0,1,.72-.32h0c-.83,1.62-.56.23-.73.34Zm-2.18.34a7.6,7.6,0,0,0,.83-.16l2.79-1c-.91.36-1.84.68-2.79,1a104.32,104.32,0,0,1-16.09,4.39.06.06,0,0,1,0,.08c-.11.85-2.48,1.55-2.56.54a.47.47,0,0,1,.09-.28c-1.32.15-2.65.23-4,.25a23.27,23.27,0,0,0,4.56-.61,2.9,2.9,0,0,1,.71-.15c5.26-1.2,11.74-3.45,16.4-4.06Zm-1.59-10.19c-8.28,1.88-16.38,5.3-24.59,7.25,5-1.16,10.62-6.22,17.09-6.61A45.93,45.93,0,0,0,1477.17,95.3ZM1450.1,98h0c5.83-2.67,12-3.22,18.27-4.15-5.77.85-12,3.78-17.62,5.38-.77,1.63-2.64,3.38-4.26,1.74-3,1.39-5.88,3.36-8.86,4.64,1.62-.7,6.28-4.29,8.4-5.73.09-1.17,3.25-2.06,4.06-1.87Zm-16.35,3.49c8.39-10,19.62-11.74,31.66-13.59C1452.75,89.81,1443,95.64,1433,103c-.69-.5-.44-1,.75-1.58Zm3,7.76c3.15,1.33-3.16,4.25-3.64,4.35C1431.18,114,1433.19,107.75,1436.75,109.25Zm-1.87,24.61c-.08.57-1.66,1-1.73.36S1434.93,133.51,1434.88,133.86Zm-17.32-23.69,1.24.49-.62.62a1.51,1.51,0,0,1-.46-.48,1.41,1.41,0,0,1-.19-.64Zm8.13,7.91c-1.81.23-2.7.56-3.12-1.55l-3.91-.67c.34-1,3-.24,3.58-.8a6.06,6.06,0,0,1-.37-2.53c-4.64,2.47-8.89,5.83-13.32,8.75.25.11.34.46.12,1.23a1.6,1.6,0,0,1-1.75-.17c-1,.62-2,1.21-3.06,1.76l-.61.32.61-.32a29.92,29.92,0,0,0,2.94-1.88,1.67,1.67,0,0,1-.18-.28,7.88,7.88,0,0,1,1.45-.66c4.28-3.25,8.7-7.41,14-9.59,1.11-3.69,4.57-3.6,6.25-.28.23-.37.49-.74.73-1.1,2.66.37.47,3-.12,3.55-.91-.64-1.2-.87-1.12-1.29-6.76,1.54,2.85,4.54,2.81,4.24.15,1-4,1.15-4.24,1.18.1.24.19.47.28.71l-.28-.71H1426c-7.49,6.82-18.61,8-26.85,11.45,8.39-3.52,18.91-6.55,26.5-11.4Zm-12,4.56a2.19,2.19,0,0,1,.52-1.47,2.19,2.19,0,0,0-.52,1.47v.26a5.28,5.28,0,0,1-2.09.83,5.28,5.28,0,0,0,2.09-.83A1.13,1.13,0,0,0,1413.69,122.64Zm4.67-5.79.39-.08c.27.52.16.78-.33.76a3.86,3.86,0,0,1,0-.68Zm3,.33a.77.77,0,0,1,.17-.19.45.45,0,0,1,.23-.11c.67.67-.57.86-.44.3Zm6.69,1.5a1.42,1.42,0,0,0-.93-.13,1.35,1.35,0,0,1,.93.12Zm-8.56,10.25-1.27-.2c-.24-1.91,1.16-.47,1.27.18Zm-6.3-2h-.07c-.3.46-4.06,3.85-3.71,1.09.1-.81,3.24-1.11,3.71-1.09h.07Zm18.77-.47c-11.46,3.7-23.16,5.63-34.22,8,11.33-2.49,23.25-4.53,34.22-8.07Zm-1,9.59c-.06,1-1.58-.08-.48-.64a.7.7,0,0,1,.35.23.61.61,0,0,1,.13.39Zm-33.58,7.27v-.09a1.49,1.49,0,0,0-.1.72.86.86,0,0,1,0-.32.64.64,0,0,1,.1-.26Zm24,24.28a2.24,2.24,0,0,1-1.47-2.79,37.78,37.78,0,0,1,1.26-5.14c-2.1-.09-4.22-.5-6.3-.74,4.69-1.46-8,2.56-3.94-.52-8.14-.8-16.61-5-23.92-8.44-.33.38-.15,1,.46,2.12-.19,1-.75,2-.93,3,9.9,8.31,24.61,15.64,37.72,15.81-15.37-.28-25.92-4.86-37.72-14.62a.17.17,0,0,0,0,.1,7.21,7.21,0,0,0-.93,0,4.88,4.88,0,0,0-2.16-2.91,20,20,0,0,1-2.41-2.54,13,13,0,0,1,2.28,1.54c.28-3.88-1.9-5.26-6.19-4.68V147a27.24,27.24,0,0,0,5.56.32l-1.11-1.44c-.19-.36,1.82,1.23,2.07,1.42,2.17,0,4.35.12,6.52.19l1.07.64c0,.56-.07,1.11-.11,1.67l-.83.11a2.52,2.52,0,0,0-1.06-.42,2.74,2.74,0,0,0-1.14,0,82.23,82.23,0,0,0,18,6,3.51,3.51,0,0,1,3.46-.88,12.4,12.4,0,0,1-.69,1.42c2.23.48,4.18,1.35,6.44,1.22.75-.06,1.18.19,1.27.75a29.67,29.67,0,0,0,4.92,1.11c1-1,3.34-.44,4.39.13h2.17a14.9,14.9,0,0,0-2,.11c.66.52-4.5,8.32-4.64,8.3Zm-6.7-15a.76.76,0,0,1,.19.21c-.88,1.51-2.37-1-.15-.2Zm-.59-.62h.37l-.15.3Zm9.44,2.73c-.94.17-1.57-.28-1.89-1.32-.12-2,3.59.45,1.9,1.32Zm3-6.23.28.23v1.69c-3.12.12-5.24,2.66-6.56-.83a2.69,2.69,0,0,1,.48-.77,66,66,0,0,1-17.5-1.45c-1.09.49-2.17,1-3.23,1.59v-2.22c-3.94-1.06-8.33-1.62-12.08-3.27,2.17,1,9.35,2.08,12.39,2.3l.3-.86c.41.07,3.06.26,3.18,1.4,2,.38,4.15.35,6.18.57.48-.88,2.25-.59,1.62.09,3.77,0,7.45.56,11.19.71a6.4,6.4,0,0,0,1.22-.55,4.65,4.65,0,0,1,1.77.83c2.27.09,4.6-.66,6.83-.94-2,.24-3.92,1.23-6,1.49Zm-10.85-3.6c.07-1,3.08-1.49,3.53-.59s-3.53,1.4-3.48.6Zm17.5-2.09c-.22,0-.26-.12-.11-.28.21,0,.24.11.1.27ZM1420,141.06c-.28.71-1.56,1-1.63.08-5.92.37-13.25.81-19.28,0a6.31,6.31,0,0,1-1-.14c.32.06.64.1,1,.14,10,1.27,26.76-1.67,36.85-3.6-5.34,1-10.39,3.16-16,3.52Zm18.44-29.74a2,2,0,0,1-1.88.6,6.46,6.46,0,0,1,1.91-.61Zm-1,8.67C1436.93,117.68,1437.2,122.45,1437.39,120Zm5.17,49.18c.63-.39,1-.23,1,.48-.81.21-.69.4-1-.49Zm13.88-5.51c6.08-1.94,13.91-2.82,18.55-7.34-8.51,8.49-26.62,12.6-38.47,13.07,5.37-.22,14.07-3.94,19.93-5.74Zm-18.43-4c10,1.83,30.88-7.48,41.79-11.6l1.46-.55-1.46.55c-12.32,4.72-28.34,14.23-41.79,11.59Z" transform="translate(0 0)"/><path class="cls-5" d="M1453.3,148.39l.52.13c1-.2,1.92-.42,2.9-.65C1455.56,148.07,1454.46,148.24,1453.3,148.39Z" transform="translate(0 0)"/><path class="cls-5" d="M1399.09,141.15l-1-.14Z" transform="translate(0 0)"/><path class="cls-5" d="M1413.66,122.9Z" transform="translate(0 0)"/><path class="cls-5" d="M1484.25,125.56c.54-.22,1.07-.48,1.58-.72Z" transform="translate(0 0)"/><path class="cls-5" d="M1479.56,105.35c1-.27,1.88-.59,2.79-.95Z" transform="translate(0 0)"/><path class="cls-5" d="M1441.56,107.55a2.42,2.42,0,0,0-2-1.08,20.27,20.27,0,0,1,2,1.09Z" transform="translate(0 0)"/><path class="cls-5" d="M1480.35,139.65c.37-.18.73-.35,1.07-.53Z" transform="translate(0 0)"/><path class="cls-5" d="M1408.05,121.29q-.63.48-1.26.93l.11.12c.55-.35,1.1-.7,1.63-1.06A.87.87,0,0,0,1408.05,121.29Z" transform="translate(0 0)"/><path class="cls-5" d="M1460.87,122.77h0Z" transform="translate(0 0)"/><path class="cls-5" d="M1462.29,109.56c-.24.06-.47.11-.71.15a1.38,1.38,0,0,0-.58.37c.82-.09,1.63-.21,2.45-.34C1463.35,109.56,1462.83,109.5,1462.29,109.56Z" transform="translate(0 0)"/><path class="cls-5" d="M1378.62,110.74c.43-.27,2.14,16.28,1.83,17.07-1.24,3.41-4.22,5.94-7.33,7.53-.6.31-12.4,2.5-12.35,2.27-.62,3,15.77-3,17.67-5a15.11,15.11,0,0,0,3.92-14.27C1382.16,117.4,1379.68,110.08,1378.62,110.74Z" transform="translate(0 0)"/></g></svg>