<svg version="1.1" id="Layer_1" xmlns="http://www.w3.org/2000/svg" x="0" y="0" viewBox="0 0 1020.5 136.4" style="enable-background:new 0 0 1020.5 136.4" xml:space="preserve"><style>.st0{fill:#007bfb}</style><path class="st0" d="M291.4 3.6h45.4l36.6 96.9 36.3-96.9h43.8v129.2h-29.1V34l-37.9 98.8h-29.9l-37.9-98.2v98.2h-27.2V3.6zM643.5 3.6h100.1v129.2h-31v-102h-40.8c-.3 18.2-.8 42.4-1.3 56.1-1.1 33.9-10.9 45.9-40 45.9h-13.9v-27.2h7.7c13.1 0 17.3-5.9 18.2-24.3.7-19.8 1-59 1-77.7zM901.9 3.6h117.7v27.2h-43.5v102h-30.7v-102h-43.5V3.6zM211.2.9h-11.1c-26.6 0-46.8 16.2-51.4 40.3l28.3 4.5c3.9-11.5 12.8-19.3 24-19.8 3.6-.2 2.8-.1 6.4 0 16.7.6 24.3 8.6 24.3 28.4-31.7 0-53.3-1.5-69.3 9-13 8.6-18.6 18.1-18.6 33.1 0 21.8 16.9 39 44.2 39h3.8c19.3 0 34.9-7.5 41.2-16.6v13.9h28.5V54.8c.1-29.9-16-53.9-50.3-53.9zm-17.4 109.3c-12.1-.3-19.1-7.4-19.1-16.2 0-7.3 3.3-10.9 7.7-13.5 4.6-2.7 10.6-3.6 19.8-3.9 8.9-.3 16.2-.7 30-.7 0 22-13.9 33.1-31.1 34.3-2.7.2-4.4.1-7.3 0zM894.7 76.9V64.8c0-41.7-26.2-63.3-60-63.3h-6.6c-36.4 0-59.6 24.8-60.8 59.8-.2 5.1-.2 7.3 0 14.3.9 34.9 25.3 58.3 57.9 59.2 6 .2 5.2.2 10.9 0 28.4-.8 49.9-17.2 56.3-38.6l-27.5-4.8c-6.7 13.4-19.5 18.6-29.8 19.1-3.2.2-3.7.1-7 0-16.1-.7-30.4-13.2-30.4-31.5v-2.1h97zm-67.1-51c3.2-.2 4.4-.2 7.6 0 13.5.7 27.7 9.4 29.1 26.9h-66.5c1.6-15.6 14.1-26 29.8-26.9zM608.1 56.8c-.7-31.3-25.9-55.2-59.2-55.2h-12.1c-33.3 0-58.5 23.9-59.2 55.4-.2 8.7-.2 13.8 0 22.5.7 31.4 25.9 55.4 59.2 55.4h12.1c33.3 0 58.5-23.9 59.2-55.4.1-8.8.1-14 0-22.7zm-30.5 21.1c-.4 18.3-13.6 30.7-31.5 31.6-3.4.2-3.2.2-6.6 0-18-.9-31.1-13.3-31.5-31.6-.2-7.6-.2-11.9 0-19.5.4-18.1 13.5-30.5 31.5-31.4 3.4-.2 3.2-.2 6.6 0 17.9.9 31.1 13.3 31.5 31.6.2 7.5.2 11.7 0 19.3zM95.8 87.2c-3.6 12-13.2 20.2-26.2 22-3.7.5-7.4.4-10.4 0-16.1-2.3-27.4-14.3-27.8-31.3-.2-7.6-.2-11.9 0-19.5.4-17.1 12.3-29.6 28.7-31.4.9-.1 4.5-.4 8-.1 13.8 1.5 24.2 9.8 27.9 22.3l30-5.8C119.5 19 97.3 1.6 68.9 1.6h-8.6C26.9 1.6 1.7 25.5 1 56.9.8 65.6.8 70.7 1 79.4c.7 31.4 25.9 55.4 59.2 55.4h8.6c29 0 51.4-18.1 57.3-43.5l-30.3-4.1z"/></svg>